<?xml version="1.0" encoding="UTF-8"?>
<svg version="1.1" xmlns="http://www.w3.org/2000/svg" width="2048" height="1228">
<path d="M0 0 C675.84 0 1351.68 0 2048 0 C2048 405.24 2048 810.48 2048 1228 C1372.16 1228 696.32 1228 0 1228 C0 822.76 0 417.52 0 0 Z " fill="#000000" transform="translate(0,0)"/>
<path d="M0 0 C1.16144531 0.474375 2.32289063 0.94875 3.51953125 1.4375 C16.42036236 7.25195909 28.3232915 17.58812973 35.3125 30 C37.32915774 33.40517618 39.59879175 35.42845801 42.75 37.8125 C55.88033714 47.86480558 63.76816281 62.13380121 68 77.875 C68.31179199 79.03322266 68.31179199 79.03322266 68.62988281 80.21484375 C69.94409428 85.58216626 70.17563479 90.4784812 70 96 C70.64324219 95.855625 71.28648437 95.71125 71.94921875 95.5625 C88.72238716 92.11694187 106.77326256 93.76693848 122 102 C130.93179863 107.93637836 139.88659362 116.14874699 144.3828125 126.04296875 C146.25508358 129.46642093 148.00298484 130.76171918 151.25 132.875 C161.89955652 140.28338714 168.41040391 150.24894898 173.04296875 162.28515625 C173.94633837 164.35672345 173.94633837 164.35672345 177 165 C178.97848697 164.46551322 180.93427641 163.8460429 182.875 163.1875 C212.4182433 154.43057968 249.63732446 156.41902095 278 168 C278.28085449 167.49251221 278.56170898 166.98502441 278.85107422 166.4621582 C287.66414094 150.63617855 297.52982333 137.13059101 310 124 C310.58007812 123.35546875 311.16015625 122.7109375 311.7578125 122.046875 C324.93553707 107.87585461 345.21148178 96.65797693 364.57421875 95.62109375 C383.33628126 95.04365851 398.07311851 99.46367221 412 112.4375 C416.00851588 116.79192841 420.16280013 122.40570582 421.51953125 128.23046875 C421.75736328 129.10638672 421.75736328 129.10638672 422 130 C424.32854463 131.19838209 424.32854463 131.19838209 427 132 C428.34050052 132.65213539 429.67524827 133.31643941 431 134 C431.78310547 133.18208984 431.78310547 133.18208984 432.58203125 132.34765625 C451.94976019 112.5050618 477.35633162 94.81048257 506.08984375 93.90234375 C507.02957031 93.91394531 507.96929688 93.92554688 508.9375 93.9375 C510.37416016 93.95103516 510.37416016 93.95103516 511.83984375 93.96484375 C512.55269531 93.97644531 513.26554687 93.98804688 514 94 C514.08757568 93.36529785 514.17515137 92.7305957 514.26538086 92.07666016 C515.29405276 87.76847695 517.0242537 83.8429122 518.75390625 79.7734375 C519.32261696 78.41999741 519.32261696 78.41999741 519.90281677 77.03921509 C521.11834934 74.14928356 522.34030268 71.2621183 523.5625 68.375 C524.7533484 65.54840282 525.94291837 62.72126994 527.13241577 59.894104 C527.92183287 58.02177927 528.71368454 56.15047914 529.50796509 54.2802124 C531.43549951 49.73948883 533.3340173 45.19152604 535.16357422 40.61035156 C535.68309914 39.32724594 535.68309914 39.32724594 536.21311951 38.01821899 C536.85590063 36.42740694 537.48855446 34.83244356 538.10829163 33.23251343 C541.01630266 26.09224571 545.36003451 19.84167536 552.61328125 16.6640625 C562.41398233 13.93718986 571.3113461 16.20144047 580 21 C589.27723922 26.72054965 596.63496777 33.56305664 601.9375 43.125 C604.54556165 47.71036925 607.53120932 50.30807358 611.76953125 53.375 C622.65708349 61.30708709 628.66654386 73.02977831 631.6875 85.9375 C633.29934059 101.73353781 627.62459008 115.71859549 621.8125 130.125 C621.23824142 131.57031462 620.66459914 133.01587426 620.09155273 134.46166992 C617.52367904 140.91112799 614.89347724 147.32171184 612.078125 153.66796875 C611.64910889 154.63653809 611.22009277 155.60510742 610.77807617 156.60302734 C609.98906705 158.36169841 609.18533678 160.11386615 608.36450195 161.85791016 C608.01863037 162.62280762 607.67275879 163.38770508 607.31640625 164.17578125 C607.01162354 164.82458252 606.70684082 165.47338379 606.39282227 166.1418457 C605.85284002 168.69610606 606.65317253 169.82577484 608 172 C608.81092215 173.16180193 609.64449266 174.30812598 610.5 175.4375 C613.21758031 179.18118733 615 182.27887547 615 187 C615.804375 187.185625 616.60875 187.37125 617.4375 187.5625 C627.06620648 191.44776753 633.79782485 199.14908787 638.1484375 208.45703125 C641.87011223 219.57083974 637.60504375 228.64690269 632.75390625 238.5546875 C631.83898992 240.37133217 630.92094226 242.18640271 630 244 C629.30173096 245.39847168 629.30173096 245.39847168 628.58935547 246.82519531 C619.14484415 265.68854479 608.68774352 283.70460878 596.30078125 300.7890625 C594.07735943 303.71408237 594.07735943 303.71408237 593 306 C593.94746094 305.14728516 593.94746094 305.14728516 594.9140625 304.27734375 C602.0902502 298.08348722 609.26505657 293.76724935 618 290 C618.95777344 289.56429688 619.91554688 289.12859375 620.90234375 288.6796875 C636.53921551 282.67680787 656.46083687 284.51558948 672 290 C672.825 290.28875 673.65 290.5775 674.5 290.875 C680.78484266 293.54129689 685.0843396 298.66841669 688.4375 304.5 C689.23880768 308.06136748 689.12364269 311.35254054 689 315 C689.64066406 315.17015625 690.28132813 315.3403125 690.94140625 315.515625 C700.34406082 318.15004983 705.5301147 320.46619791 710.8359375 328.87890625 C712 331 712 331 713 334 C713.76441406 333.18917969 714.52882813 332.37835937 715.31640625 331.54296875 C733.12333377 313.00077655 757.04384238 295.73078723 783.671875 294.6640625 C804.86939546 294.34762998 804.86939546 294.34762998 815 299 C816.093125 299.49757813 817.18625 299.99515625 818.3125 300.5078125 C829.13650184 305.89475786 838.28118065 313.1729114 844 324 C844.350625 325.134375 844.70125 326.26875 845.0625 327.4375 C845.371875 328.283125 845.68125 329.12875 846 330 C847.66546961 330.66965156 849.33235355 331.33578804 851 332 C861.25421027 339.79781585 868.49019382 348.54584904 872 361 C872.09539062 361.85078125 872.19078125 362.7015625 872.2890625 363.578125 C873.27617926 366.94083044 875.24577506 367.90711165 878 370 C879.94921875 372.62109375 879.94921875 372.62109375 881.6875 375.4375 C882.26886719 376.36433594 882.85023437 377.29117187 883.44921875 378.24609375 C885 381 885 381 885.88671875 383.64453125 C887.37252949 386.78819398 889.10560241 387.58470551 892.125 389.25 C900.00175996 394.00909088 907.28600995 400.92509577 910 410 C912.46904234 425.61154893 900.55199458 439.39966198 891.9296875 451.265625 C884.10861589 461.86344535 875.87244458 472.06098037 866.98828125 481.7890625 C865.4039618 483.55080083 863.90609002 485.33088787 862.4375 487.1875 C859.88426192 490.13354394 857.1762476 492.57879619 854.2109375 495.09765625 C851.89458979 497.09069748 849.67292248 499.1668239 847.4375 501.25 C823.45194656 522.81128617 798.36099074 533.97239544 766 533 C765.13503906 532.98195313 764.27007813 532.96390625 763.37890625 532.9453125 C747.48806101 531.92397273 731.87416186 522.96365517 720 513 C718.96875 512.21625 717.9375 511.4325 716.875 510.625 C713.05112533 507.13363617 710.06305083 503.15958678 707 499 C703.39300618 501.36152959 699.90752134 503.8053929 696.46142578 506.39941406 C682.92252992 516.46237782 667.94441456 523.63752874 652 529 C651.15953125 529.30421875 650.3190625 529.6084375 649.453125 529.921875 C629.08041482 536.80644602 599.96260082 539.80240666 580 531 C578.85273437 530.525625 577.70546875 530.05125 576.5234375 529.5625 C565.71052857 524.66253255 557.263011 517.44092272 549 509 C548.28199219 509.47308594 547.56398438 509.94617188 546.82421875 510.43359375 C516.85751413 529.57795175 481.22108171 540.31204436 445.5625 533.75 C423.608462 528.4091634 408.26635272 514.39952908 396 496 C393.11404754 497.29434348 391.2391822 498.60047157 389.125 500.9375 C369.66187672 520.85614319 343.87612751 533.81984278 316 535 C316 535.66 316 536.32 316 537 C316.72445312 537.24621094 317.44890625 537.49242187 318.1953125 537.74609375 C329.79903859 542.93383202 337.59947866 555.06751281 342.15234375 566.3984375 C343 569 343 569 343 572 C344.134375 572.04125 345.26875 572.0825 346.4375 572.125 C352.74543742 572.95263718 357.66812768 576.15836955 361.6796875 581.046875 C365.1831608 586.62867992 365.60845487 591.52333597 365 598 C366.7634375 598.185625 366.7634375 598.185625 368.5625 598.375 C372.54120426 598.86435935 376.17766559 599.8055205 380 601 C380.4125 600.57589844 380.825 600.15179687 381.25 599.71484375 C385.65201261 595.2440497 390.17849944 591.01522956 395 587 C395.93585937 586.21367188 396.87171875 585.42734375 397.8359375 584.6171875 C412.83457482 572.36704103 427.49019141 566.22921147 447 568 C455.87569525 570.08564809 463.23887542 574.81351036 468.59765625 582.203125 C471.5143711 586.98036269 472.59245047 590.43096562 472 596 C472.804375 596.04125 473.60875 596.0825 474.4375 596.125 C482.66918043 598.14681625 489.22812871 604.13960886 494 611 C496.79162125 616.76997303 496.95524948 622.8501457 495.5234375 629.0703125 C493.17131233 634.7486753 488.46472833 638.75073241 483.97753906 642.78881836 C482.18128525 644.40463211 482.18128525 644.40463211 480 647 C479.98830446 650.16364243 481.70980666 652.34852334 483.4375 654.9375 C484.92581653 657.17219617 486.00852731 659.02527602 486.87109375 661.58203125 C488.30057213 664.64378598 489.63742501 665.25158778 492.625 666.75 C501.32236448 671.66972132 507.87900557 679.43930666 511 689 C513.10451449 698.90110508 508.91465589 706.49540885 504.19726562 714.86279297 C503.00757987 716.98646938 501.86673284 719.13044944 500.734375 721.28515625 C482.10096026 756.32552352 454.20528938 798.1674195 414.9375 811.9375 C401.68910198 815.76481498 389.69440411 814.58928304 377.5 808.3125 C372.64285984 805.55966062 368.36815167 802.3148803 364.09375 798.734375 C361.91425517 796.86801017 361.91425517 796.86801017 359 795 C354.7445563 802.40762421 350.52518313 809.79816504 346.81079102 817.49511719 C342.49685605 826.42893996 338.99879302 833.59149332 329.359375 837.34375 C322.60261209 839.22311452 316.12004518 838.39329238 310 835 C301.56981092 829.26300932 296.15835244 820.92842124 294 811 C292.948125 810.87625 292.948125 810.87625 291.875 810.75 C289 810 289 810 286.25 807.75 C283.28546896 805.73230626 283.28546896 805.73230626 280.828125 806.3359375 C278.49827095 807.12558602 276.26503954 808.04113326 274 809 C268.54596853 811.26713438 263.56503198 811.33317935 257.75 811.3125 C256.85925781 811.32861328 255.96851563 811.34472656 255.05078125 811.36132812 C241.89841887 811.37087266 231.12866039 806.32231264 221.8125 797.0625 C220.86403781 796.05184357 219.92178685 795.03504394 219 794 C215.25585815 795.58709526 212.68919006 797.97643001 209.6875 800.6875 C198.48163149 810.43242642 185.86193253 814.87543609 171.06542969 814.17480469 C154.55630684 812.77757869 141.51252091 804.38684634 131 792 C128.92933556 788.96863913 126.9796465 785.87941832 125.0234375 782.7734375 C122.33658484 779.09068579 119.14117118 776.74319457 115.515625 774.03515625 C101.07254458 762.35061448 96.00536378 745.31350796 92 728 C91.6596875 728.63164063 91.319375 729.26328125 90.96875 729.9140625 C79.35203662 751.35554943 66.80467778 772.33702943 51 791 C50.55881836 791.52480957 50.11763672 792.04961914 49.66308594 792.59033203 C37.77423467 806.6031082 21.81309646 819.45758449 2.86035156 821.19628906 C-13.23129503 822.25837782 -24.54740414 818.58076579 -37 808 C-41.11231598 804.06957492 -44.07557665 799.97207741 -46.8125 795 C-49.60148976 790.13410297 -52.98156432 787.3828238 -57.4140625 784.03515625 C-70.59866421 773.6587552 -77.32971505 758.34523585 -79.3828125 741.94140625 C-79.76843557 735.36066472 -78.70701397 730.66718982 -74.96484375 725.19921875 C-71.19943393 720.98465468 -66.45357498 717.40007342 -60.70703125 716.734375 C-59.97871094 716.71890625 -59.25039063 716.7034375 -58.5 716.6875 C-52.01047982 716.33331844 -48.20285133 711.51757343 -44 707 C-38.43903621 700.89650123 -38.43903621 700.89650123 -34 694 C-35.11761719 693.83371094 -35.11761719 693.83371094 -36.2578125 693.6640625 C-41.05707862 692.50184706 -43.87976526 689.74309529 -47 686 C-49.81575965 681.17216919 -51.98403529 676.20516559 -54 671 C-54.43699219 669.89527344 -54.87398437 668.79054688 -55.32421875 667.65234375 C-60.58675588 652.16017305 -59.65201866 635.50903281 -52.4921875 620.9296875 C-43.78634709 604.7732674 -28.69702206 594.78947192 -11.45581055 589.17089844 C-3.15411257 586.81033169 4.72423802 586.61361073 13.3125 586.75 C14.63056641 586.75515625 15.94863281 586.7603125 17.30664062 586.765625 C23.31476856 586.81415102 29.05642098 587.05763891 35 588 C35.22042969 587.33484375 35.44085937 586.6696875 35.66796875 585.984375 C37.42700527 582.04330784 39.79983582 578.74553218 42.3125 575.25 C42.84157959 574.5084668 43.37065918 573.76693359 43.91577148 573.00292969 C53.09161423 560.22224345 62.73811001 547.92286898 73 536 C74.67391525 534.00590247 76.33762655 532.00375371 78 530 C77.10861328 530.29003906 77.10861328 530.29003906 76.19921875 530.5859375 C53.49146639 537.71963264 29.97659405 537.26171784 8.62060547 526.28198242 C0.33957292 521.75475461 -6.39265258 515.70123513 -13 509 C-16.90857114 510.59854091 -19.57915279 513.30004609 -22.5625 516.1875 C-36.4450647 529.20665765 -51.26519649 535.56750192 -70.15234375 535.27734375 C-83.55882048 534.75582221 -95.78863444 527.48728204 -105 518 C-106.51608813 516.05135565 -107.74938927 514.13645999 -109 512 C-109.64001953 512.49306641 -109.64001953 512.49306641 -110.29296875 512.99609375 C-130.01557929 528.00154383 -147.56491921 537.15926894 -173 535 C-176.51149789 534.3195984 -179.72940248 533.44594838 -183 532 C-183.226875 532.86625 -183.45375 533.7325 -183.6875 534.625 C-185.92281183 540.37294469 -189.4558397 544.29899883 -195 547 C-200.91119392 548.81395007 -208.09229113 549.08850205 -213.875 546.75 C-217.70107434 544.60739837 -220.82596792 542.34518937 -223.71484375 539.03515625 C-237.28331391 526.95109992 -263.93271801 529.33998953 -280.65380859 530.12451172 C-325.52004365 532.81837928 -375.1342924 545.61939594 -410 575 C-416.61505344 580.4018122 -421.47772588 581.83144138 -430 581 C-436.96649279 579.45189049 -440.63018452 575.9443162 -445.0625 570.4375 C-446.92564959 567.13191201 -447.75594584 564.38328966 -448.75 560.75 C-449.64994936 557.61548908 -449.64994936 557.61548908 -451 555 C-454.42014124 553.58220642 -454.42014124 553.58220642 -456.8515625 553.375 C-461.13397231 552.62752483 -464.07895679 550.10285088 -467 547 C-475.50957235 534.45132187 -478.82957258 517.80905941 -476.52734375 502.94921875 C-473.92610599 490.93991148 -468.11191027 481.10267794 -460 472 C-459.11054688 470.98679687 -459.11054688 470.98679687 -458.203125 469.953125 C-454.15760741 465.63099083 -449.64961837 462.0938146 -444.875 458.625 C-444.28895996 458.19574219 -443.70291992 457.76648438 -443.09912109 457.32421875 C-439.52921932 454.80405128 -436.20936827 453.16429335 -432 452 C-432.04640625 451.00484375 -432.0928125 450.0096875 -432.140625 448.984375 C-432.37037849 441.34321857 -432.05060282 434.54695952 -430.16040039 427.10571289 C-427.95523733 419.51965631 -427.95523733 419.51965631 -429.26953125 412.05078125 C-431.36152726 409.75878562 -433.57345692 407.9283786 -436 406 C-437.22976596 404.47054317 -438.4188213 402.9073547 -439.5625 401.3125 C-442.1812075 397.88027112 -444.92857117 395.22257958 -448.2578125 392.5 C-464.81412066 378.2452414 -476.14288778 354.56935159 -478 333 C-480.09970253 299.06672689 -468.42627344 267.66956912 -445.95800781 242.1706543 C-435.3601216 230.6193304 -421.04249316 220.94885863 -405.046875 219.78515625 C-388.74700531 219.3023402 -373.2770325 225.16795823 -360.9375 235.8125 C-356.64718798 239.98059924 -353.53123144 244.44305036 -350.48828125 249.5703125 C-348.60299123 252.64813505 -346.83863912 254.77512069 -344 257 C-340.14784798 257.43787627 -340.14784798 257.43787627 -338.39453125 255.6015625 C-337.87246094 254.94929688 -337.35039062 254.29703125 -336.8125 253.625 C-336.20019531 252.88765625 -335.58789062 252.1503125 -334.95703125 251.390625 C-333.98830078 250.20726562 -333.98830078 250.20726562 -333 249 C-312.279573 224.62302706 -280.8959891 197.43615457 -247.49462891 194.71435547 C-243.80409216 194.59947688 -240.12954565 194.59026042 -236.4375 194.625 C-235.20064453 194.61339844 -233.96378906 194.60179687 -232.68945312 194.58984375 C-224.99355247 194.61426226 -218.2917608 195.53556842 -211 198 C-210.01 198.33 -209.02 198.66 -208 199 C-207.98541748 198.33693848 -207.97083496 197.67387695 -207.95581055 196.99072266 C-206.74336305 147.387482 -189.53160085 103.70298287 -157 66 C-156.03126953 64.86498047 -156.03126953 64.86498047 -155.04296875 63.70703125 C-143.53445196 50.57015835 -131.15599659 38.25784679 -117 28 C-115.41832031 26.83597656 -115.41832031 26.83597656 -113.8046875 25.6484375 C-83.79625654 4.19277802 -36.67263552 -15.77721579 0 0 Z " fill="#FDFDFD" transform="translate(807,325)"/>
<path d="M0 0 C5.36693781 2.35011873 8.51080725 5.45371087 11.75 10.3125 C12.015625 13.4921875 12.015625 13.4921875 12 17.1875 C12.00515625 18.40179687 12.0103125 19.61609375 12.015625 20.8671875 C11.76080194 24.17239244 11.04363394 26.30708133 9.75 29.3125 C10.40895264 29.56829834 11.06790527 29.82409668 11.74682617 30.08764648 C45.95184414 43.49429327 45.95184414 43.49429327 54.75 59.3125 C59.73809935 72.24830432 55.03253664 83.28248658 49.75 95.3125 C47.25229093 100.69198629 44.67616668 106.03215213 42.01464844 111.33251953 C35.07618452 124.69650786 35.07618452 124.69650786 33.75 139.3125 C35.29779999 141.36035845 36.12559963 142.22097143 38.6953125 142.59765625 C50.72246754 141.3690759 59.195161 132.06414518 66.75 123.3125 C71.39660606 117.53944398 75.57820344 111.43242009 79.75 105.3125 C80.40081543 104.36165527 81.05163086 103.41081055 81.72216797 102.43115234 C88.47732989 92.52711238 95.13043196 82.6099733 101.0625 72.1875 C110.95914309 54.95751977 125.4259145 37.37919833 142.75 27.3125 C143.87664063 26.63832031 145.00328125 25.96414063 146.1640625 25.26953125 C162.9724283 15.54093226 182.09019048 12.17138921 201.23828125 16.5 C212.62127104 20.18221131 221.05767524 25.8571939 226.69213867 36.52734375 C231.26645431 45.58738582 233.12067221 53.18205247 233.0625 63.25 C233.05404053 64.780802 233.05404053 64.780802 233.04541016 66.3425293 C232.79510154 82.09090684 229.43508532 99.33961759 221.75 113.3125 C239.71011598 104.92237282 251.56591761 94.87158635 262.25 78 C263.56483067 75.95555325 264.87993189 73.91128046 266.1953125 71.8671875 C267.1219873 70.41844238 267.1219873 70.41844238 268.06738281 68.94042969 C301.5963249 16.57456599 301.5963249 16.57456599 329.75 8.3125 C341.78938918 6.20032646 352.25840118 7.0995407 363.75 11.3125 C363.11678766 15.17509528 361.92221384 18.41327702 360.375 22 C353.40005112 40.15227807 354.29754525 59.45015182 354.23876953 78.59570312 C354.13172357 102.76862851 352.20339787 124.49268831 338.75 145.3125 C347.60915407 140.94506132 355.16822682 135.56871813 362.75 129.3125 C363.46542969 128.72597656 364.18085937 128.13945313 364.91796875 127.53515625 C368.60814221 124.20341024 370.54024186 120.88915109 372.625 116.375 C375.93909453 109.30375017 380.62024888 104.16667397 387.8125 100.9375 C397.7726187 95.4276471 404.10864892 81.2136199 410.07861328 71.90966797 C445.18289732 17.36111793 445.18289732 17.36111793 473.75 8.3125 C476.56744124 7.75824926 478.92472882 7.43555188 481.75 7.3125 C482.71679688 7.24933594 483.68359375 7.18617188 484.6796875 7.12109375 C493.03431292 6.81055012 499.92965189 8.44546567 507.75 11.3125 C507.10677986 15.21470217 505.90347381 18.5469533 504.375 22.1875 C498.19150844 38.28936816 498.30355302 53.88668287 498.25 70.9375 C498.16658168 97.25779475 498.02867085 122.77375151 482.75 145.3125 C503.57566754 135.23967713 520.83898492 117.51433899 534.75 99.3125 C535.51957031 98.37148438 536.28914063 97.43046875 537.08203125 96.4609375 C542.22525796 90.0622775 546.54538805 83.46370659 550.6875 76.375 C566.09269004 50.17518195 588.97438235 25.32771045 619.3125 17.375 C632.4031339 14.82737357 643.59756799 15.78845932 655.1640625 22.76953125 C660.49166002 26.55072874 665.22347351 31.18456514 667.75 37.3125 C669.71354877 52.26743539 663.19914942 65.47019916 654.75 77.3125 C651.91884837 80.83193809 648.92995211 84.10745951 645.75 87.3125 C644.945625 88.158125 644.14125 89.00375 643.3125 89.875 C642.466875 90.679375 641.62125 91.48375 640.75 92.3125 C640.0796875 92.97765625 639.409375 93.6428125 638.71875 94.328125 C628.4339144 104.14546807 616.4279639 111.72076471 601.8125 111.6875 C601.1102832 111.68661377 600.40806641 111.68572754 599.68457031 111.68481445 C592.21510577 111.51395002 587.45736241 109.06863534 581.75 104.3125 C578.85992933 114.76009818 579.57004826 127.7679593 584.75 137.3125 C588.54111988 143.58488654 592.67044594 147.95264865 599.75 150.3125 C617.49405046 151.75376109 631.59674851 145.11429691 644.92578125 133.80078125 C660.44203742 120.13016551 673.81435937 105.68491488 686.23339844 89.15039062 C688.88956825 85.63587394 691.50739306 82.31956649 694.75 79.3125 C702.97905457 83.65992506 702.97905457 83.65992506 704.75 87.3125 C704.3867092 92.21249546 701.89481879 95.78388908 699.3125 99.8125 C698.64359741 100.86763794 698.64359741 100.86763794 697.96118164 101.9440918 C693.6042866 108.71460115 688.79967095 115.04896584 683.75 121.3125 C682.986875 122.26898437 682.22375 123.22546875 681.4375 124.2109375 C676.41418815 130.43775115 671.22884361 136.48202912 665.75 142.3125 C665.22696289 142.86953613 664.70392578 143.42657227 664.16503906 144.00048828 C646.41842449 162.73974427 624.17985708 182.2126268 597.171875 183.48046875 C578.3148609 183.58077202 562.96254004 179.09209037 548.875 165.9375 C539.54851254 155.88486266 536.24766403 143.4430766 533.75 130.3125 C533.35321045 130.74481934 532.9564209 131.17713867 532.54760742 131.62255859 C512.02592627 153.91779147 489.63128943 173.2340853 459.75 181.3125 C459.0684082 181.50714844 458.38681641 181.70179688 457.68457031 181.90234375 C447.41109417 184.76414047 437.40676254 185.70994721 426.75 185.8125 C425.62883789 185.83094971 424.50767578 185.84939941 423.35253906 185.8684082 C409.40519573 185.76387558 397.60162043 180.19401056 387.5625 170.625 C381.19726701 163.98954485 376.77442653 156.52953805 372.75 148.3125 C371.925 149.06273437 371.1 149.81296875 370.25 150.5859375 C354.80156237 164.37959018 337.76761286 174.26081021 318.0625 180.625 C317.31508545 180.86766602 316.5676709 181.11033203 315.79760742 181.36035156 C305.04102861 184.6657525 294.40502269 185.67478893 283.1875 185.6875 C282.04603516 185.71199219 280.90457031 185.73648438 279.72851562 185.76171875 C265.57421772 185.81022006 253.76079395 180.34573034 243.5625 170.625 C235.10766347 161.74609643 226.48253708 149.24549385 226.4375 136.5 C226.540625 135.448125 226.64375 134.39625 226.75 133.3125 C226.06550781 133.63347656 225.38101563 133.95445312 224.67578125 134.28515625 C221.33726961 135.45742402 218.46407222 135.55947956 214.9375 135.75 C209.66433829 136.455869 209.66433829 136.455869 205.4453125 139.46484375 C204.15140368 141.33591106 202.9100634 143.24408865 201.71484375 145.1796875 C189.15350426 165.20790673 167.02812826 178.25463248 144.75 184.3125 C130.43499002 187.43024454 115.45641144 186.49553893 102.984375 178.55078125 C88.85554761 168.12336822 84.64556682 153.76458418 81.75 137.3125 C81.02296875 138.37726563 80.2959375 139.44203125 79.546875 140.5390625 C53.23226346 178.6914919 53.23226346 178.6914919 33.75 185.3125 C24.48649992 186.8843954 14.94969266 186.10316293 6.75 181.3125 C6.04617188 180.91160156 5.34234375 180.51070312 4.6171875 180.09765625 C-3.84843316 174.54511038 -8.97695191 165.01666686 -11.25 155.3125 C-13.98384592 141.46752315 -12.31547907 129.29573321 -7.25 116.3125 C-6.80398438 115.15234375 -6.35796875 113.9921875 -5.8984375 112.796875 C-3.21325505 106.22642855 -0.07179498 100.04110969 3.3125 93.8125 C11.80756245 78.40727723 11.80756245 78.40727723 12.75 61.3125 C9.95452832 55.72155665 5.58891067 51.64806427 -0.25 49.3125 C-1.24 49.3125 -2.23 49.3125 -3.25 49.3125 C-5.01161217 51.61614997 -5.01161217 51.61614997 -6.6640625 54.671875 C-6.99084991 55.23945526 -7.31763733 55.80703552 -7.65432739 56.39181519 C-8.36414767 57.62705952 -9.06896722 58.86518759 -9.76940918 60.10577393 C-11.2672326 62.7566915 -12.79090803 65.39239528 -14.31359863 68.02908325 C-15.10537354 69.40037916 -15.89596513 70.77235892 -16.6854248 72.14498901 C-31.82171717 98.44277194 -47.55600556 124.6710158 -68.19921875 147.07421875 C-70.12444546 149.17546619 -71.97078303 151.32569306 -73.8125 153.5 C-77.32204911 157.5063346 -81.11622113 160.96001954 -85.25 164.3125 C-86.12398437 165.0240625 -86.99796875 165.735625 -87.8984375 166.46875 C-105.68554263 180.39323981 -123.54097086 187.01788443 -146.25 185.3125 C-150.56427939 184.49095605 -154.28740605 183.18646463 -158.25 181.3125 C-159.20261719 180.86519531 -160.15523437 180.41789063 -161.13671875 179.95703125 C-174.96365095 172.92095252 -183.07169793 162.86792967 -188.31640625 148.3203125 C-189.36877367 144.92984006 -190.00346651 141.84614676 -190.25 138.3125 C-190.91 138.3125 -191.57 138.3125 -192.25 138.3125 C-193.52004927 139.76132923 -193.52004927 139.76132923 -194.75390625 141.6796875 C-195.24294434 142.39592285 -195.73198242 143.1121582 -196.23583984 143.85009766 C-196.7561377 144.62144043 -197.27643555 145.3927832 -197.8125 146.1875 C-201.99699542 152.2622547 -206.24274295 157.89083613 -211.31640625 163.25390625 C-213.01706722 165.06450894 -214.53385603 166.92099423 -216.0625 168.875 C-223.27470174 177.30588403 -233.2696572 184.17245103 -244.33984375 185.75390625 C-253.70806978 186.27745753 -261.3324138 183.62648356 -268.4140625 177.4140625 C-276.20421749 169.02721478 -279.60514221 159.09872755 -279.625 147.75 C-279.64949219 147.04037109 -279.67398438 146.33074219 -279.69921875 145.59960938 C-279.73839228 138.15010939 -277.47166937 131.35198213 -275.25 124.3125 C-275.74814209 125.07280518 -276.24628418 125.83311035 -276.75952148 126.61645508 C-278.6501349 129.49554738 -280.546292 132.37083419 -282.44604492 135.24389648 C-283.25974022 136.47684088 -284.07134202 137.71117004 -284.88061523 138.94702148 C-297.15763359 157.68643064 -312.88617408 180.32073441 -336.25 185.3125 C-347.62343751 186.40805456 -356.34058609 185.4639737 -365.4375 178.125 C-373.59938186 170.48339746 -378.11255351 161.34451501 -378.68359375 150.12109375 C-378.70704702 148.33088232 -378.7077107 146.54025098 -378.6875 144.75 C-378.67992676 143.79472412 -378.67235352 142.83944824 -378.66455078 141.85522461 C-377.82540345 105.15631032 -353.45372943 72.36940792 -328.046875 47.80078125 C-313.68926378 34.34897744 -297.03536262 23.40366663 -278.25 17.3125 C-277.51007813 17.06757812 -276.77015625 16.82265625 -276.0078125 16.5703125 C-271.11756361 15.22318733 -266.17387754 15.08582804 -261.125 15 C-260.45557373 14.98219482 -259.78614746 14.96438965 -259.09643555 14.94604492 C-253.48996999 14.95503518 -248.86587774 16.11305123 -244.5078125 19.77734375 C-239.94563924 25.70816899 -239.62388727 30.9974163 -240.25 38.3125 C-240.90163817 40.99861314 -241.68861783 43.57295791 -242.59375 46.18359375 C-243.39728933 48.41902061 -243.39728933 48.41902061 -243.25 51.3125 C-242.46496094 51.580625 -241.67992187 51.84875 -240.87109375 52.125 C-232.92974625 55.08717134 -227.13646739 58.53956522 -223.25 66.3125 C-222.19627729 75.5551535 -224.29396503 82.08065817 -228.25 90.3125 C-240.07663264 113.28064026 -240.07663264 113.28064026 -242.25 138.3125 C-241.14165238 140.69909692 -241.14165238 140.69909692 -239.25 142.3125 C-233.61502722 143.67370124 -228.11964522 142.47837239 -223.17578125 139.625 C-215.50567687 134.39750492 -209.85494595 127.63602866 -204.25 120.3125 C-203.73131348 119.63638672 -203.21262695 118.96027344 -202.67822266 118.26367188 C-193.27178835 105.92469131 -184.83812252 93.13568836 -176.77490234 79.88916016 C-159.57820994 51.66618655 -137.44215882 24.50248121 -104.0234375 15.9375 C-91.63952635 13.88633459 -78.7453494 13.73562097 -67.953125 20.8203125 C-62.16837709 25.35943951 -58.86926658 30.57902556 -57.91015625 37.91015625 C-57.45315379 50.61482464 -61.44732631 61.78809795 -69.98046875 71.2265625 C-75.92870905 76.75284525 -82.56204166 78.95071014 -90.640625 78.75 C-95.30586679 77.96780377 -99.22345052 75.71129544 -103.25 73.3125 C-101.74961141 69.01994441 -99.46993557 65.48521246 -96.9375 61.75 C-89.71216557 51.40228163 -89.71216557 51.40228163 -87.5703125 39.53515625 C-88.04501044 37.3610176 -88.04501044 37.3610176 -89.25 36.3125 C-98.08803931 36.45278634 -104.37617018 39.38075578 -110.6015625 45.69921875 C-131.10143312 69.82707334 -143.63967207 101.60155161 -141.25 133.3125 C-140.4035271 139.40601963 -138.91618625 145.35267209 -134.1875 149.5625 C-127.67644065 153.44142897 -120.42368452 153.23123559 -113.14453125 151.62890625 C-92.61563855 145.22856583 -77.29559517 128.65555999 -64.25 112.3125 C-63.31231888 111.16444811 -62.37346756 110.01735124 -61.43359375 108.87109375 C-46.72990053 90.86568027 -34.83618268 71.58866567 -23.14428711 51.54785156 C-21.95590784 49.51815674 -20.74391235 47.50191334 -19.49829102 45.50683594 C-18.08517958 43.44352471 -18.08517958 43.44352471 -18.25 41.3125 C-19.48110594 40.20421223 -20.76103849 39.14975438 -22.0625 38.125 C-26.91917755 33.92161005 -28.87363811 30.61422018 -29.59375 24.296875 C-29.94464453 16.75264265 -29.01880567 11.27661989 -24.25 5.3125 C-17.04776071 -2.18446008 -9.63885235 -3.55342766 0 0 Z " fill="#020202" transform="translate(965.25,625.6875)"/>
<path d="M0 0 C0.97880127 -0.02231689 1.95760254 -0.04463379 2.96606445 -0.06762695 C10.71243355 -0.04321127 15.93554774 1.71493532 21.875 6.6875 C33.32593319 20.30482595 32.29766184 35.44088646 30.94726562 52.46630859 C26.74918203 91.59271512 9.17386333 130.56929731 -5.62084961 166.65332031 C-18.93536723 194.79269589 -18.93536723 194.79269589 -19.8125 224.4375 C-11.08610103 224.3971 -6.6857227 221.27607849 -0.62890625 215.2734375 C9.88414273 204.08624153 17.78590531 190.65771101 25.81982422 177.64599609 C26.65290207 176.30075827 27.49162319 174.95896648 28.34033203 173.62353516 C34.60804989 163.75489993 38.6913449 153.16199458 42.890625 142.29296875 C44.83591584 137.26326019 46.9518526 132.3446435 49.1875 127.4375 C44.5675 127.4375 39.9475 127.4375 35.1875 127.4375 C35.1875 117.51972681 37.8041487 111.35358053 44.40625 104.03125 C46.3219698 102.31718492 47.79300831 101.37499227 50.1875 100.4375 C51.90866685 100.61171338 53.62868046 100.79753946 55.34765625 100.9921875 C58.37087929 100.91832532 58.37087929 100.91832532 61.1875 99.4375 C65.65021586 94.06874541 67.97393882 86.9362044 70.625 80.5625 C71.44097566 78.69034954 72.26106542 76.81998698 73.08520508 74.95141602 C74.72403279 71.21856104 76.33871991 67.47679181 77.93164062 63.72412109 C79.92752989 59.02725686 81.9826741 54.36021907 84.078125 49.70703125 C84.36651749 49.06610535 84.65490997 48.42517944 84.95204163 47.76483154 C85.22898361 47.14940491 85.5059256 46.53397827 85.79125977 45.89990234 C87.95167867 41.09149659 90.07383851 36.26660698 92.1875 31.4375 C102.35043946 34.45378451 108.57693244 38.85461275 113.75 48.375 C116.72374675 54.23384522 117.16399366 59.62699984 115.54077148 65.96118164 C114.64727418 68.6767925 113.66080603 71.33548805 112.625 74 C112.26728516 74.95148926 111.90957031 75.90297852 111.54101562 76.88330078 C108.37758729 85.19497162 104.89312436 93.35460687 101.1875 101.4375 C101.90292969 101.43226318 102.61835937 101.42702637 103.35546875 101.42163086 C106.63280338 101.40069704 109.91012387 101.38778798 113.1875 101.375 C114.31285156 101.36662109 115.43820312 101.35824219 116.59765625 101.34960938 C122.56334397 101.33216584 128.29037573 101.51968777 134.1875 102.4375 C134.1875 105.0775 134.1875 107.7175 134.1875 110.4375 C134.6 109.90640625 135.0125 109.3753125 135.4375 108.828125 C139.38578867 103.99852189 143.00988179 100.051752 149.1875 98.4375 C153.21367575 98.14036526 157.15990484 98.19584429 161.1875 98.4375 C161.17178955 98.98873535 161.1560791 99.5399707 161.13989258 100.10791016 C160.54723421 124.36939334 164.84075776 146.83504446 170.1875 170.4375 C170.8475 170.4375 171.5075 170.4375 172.1875 170.4375 C173.88921339 168.43082006 175.48284363 166.41245534 177.0625 164.3125 C184.93167892 154.07390842 193.3679899 144.34871578 202.05078125 134.79296875 C203.49554133 133.20029904 204.93021619 131.59843144 206.35546875 129.98828125 C235.74722133 96.851031 235.74722133 96.851031 252.9453125 93.9765625 C258.07865365 93.77735822 261.76841218 94.64649716 266.1875 97.4375 C266.1875 101.4375 266.1875 101.4375 263.58984375 104.171875 C262.44458528 105.18810899 261.28913648 106.19294747 260.125 107.1875 C255.73108233 111.00127929 251.77767543 114.92983955 247.9934082 119.35351562 C244.88040206 122.94586664 241.58514689 126.36613654 238.3125 129.8125 C229.38398951 139.26411761 220.73012775 148.90230288 212.296875 158.796875 C210.25547554 161.19174137 208.20361581 163.57683571 206.140625 165.953125 C200.56192575 172.39119436 195.13183215 178.90742514 189.93847656 185.66210938 C187.5557676 188.7530958 185.08956498 191.63675835 182.375 194.4375 C181.2921875 195.9225 181.2921875 195.9225 180.1875 197.4375 C182.46787102 207.16618345 189.28543231 218.17545798 197.46484375 224.08203125 C203.79574603 227.23385778 211.18990497 226.40171547 217.7578125 224.2890625 C227.1094261 220.00029116 234.15362187 213.81918213 241.1875 206.4375 C242.07695313 205.50679687 242.96640625 204.57609375 243.8828125 203.6171875 C252.55846692 193.90563404 259.4455532 182.86206969 266.53466797 171.97314453 C268.39848036 169.11383058 270.2864126 166.27211369 272.1875 163.4375 C275.0217324 163.52085978 276.74451545 164.05141255 278.890625 165.921875 C282.05620106 169.38329928 282.05620106 169.38329928 283.1875 171.4375 C278.60308961 198.42404451 250.25172504 229.3970035 231.54296875 248.078125 C230.19036082 249.43297606 228.85142492 250.80251935 227.5546875 252.2109375 C219.27147013 261.10130169 206.45943501 269.3446806 194.0625 270.0625 C181.5061949 269.28023818 172.59258678 259.22617853 164.5625 250.5625 C160.05984248 245.45788291 156.07967006 240.01592357 152.1875 234.4375 C132.21709873 262.54022338 132.21709873 262.54022338 117.1875 293.4375 C112.02217696 289.80781354 109.6930157 286.27292459 108.578125 280.01953125 C108.11980233 267.7339374 112.22140261 258.9975339 118.1875 248.4375 C118.65833008 247.60105957 119.12916016 246.76461914 119.61425781 245.90283203 C123.90859969 238.36685247 128.29563705 230.90888554 133.46875 223.9375 C133.98840332 223.22875732 134.50805664 222.52001465 135.04345703 221.78979492 C136.02377027 220.4734148 137.02863509 219.1748066 138.06201172 217.8996582 C139.97877004 215.3375609 141.2249727 213.56852954 141.11669922 210.30053711 C140.61896633 207.94434617 139.94923646 205.72150639 139.1875 203.4375 C138.75486493 201.9057774 138.32514934 200.37322702 137.8984375 198.83984375 C137.45622782 197.35063762 137.01092037 195.8623478 136.5625 194.375 C136.33304688 193.60478516 136.10359375 192.83457031 135.8671875 192.04101562 C135.31006886 190.17234685 134.74919058 188.30479961 134.1875 186.4375 C133.58164063 187.35789062 132.97578125 188.27828125 132.3515625 189.2265625 C120.34365107 207.39945527 107.85411811 225.06145012 92.7421875 240.81103516 C91.69346522 241.90817521 90.65192059 243.01221534 89.6171875 244.12255859 C80.21998419 254.20545685 68.99834277 265.30765395 54.63671875 266.80859375 C45.13758843 266.97628349 39.49557486 265.99826826 32.30078125 259.81640625 C22.47266633 249.90301485 20.18923208 236.73635697 19.1875 223.4375 C18.86587891 223.93040527 18.54425781 224.42331055 18.21289062 224.93115234 C12.22907876 234.07545829 6.28084532 243.10243121 -0.8125 251.4375 C-1.64974609 252.49130859 -1.64974609 252.49130859 -2.50390625 253.56640625 C-8.45502253 260.84306119 -17.21128011 268.40559443 -26.85546875 269.71484375 C-35.54694732 270.09942245 -44.17147016 267.90042734 -50.90234375 262.2890625 C-60.5691336 252.91879994 -65.78491256 242.1521301 -66.15478516 228.68457031 C-66.29547612 217.13951215 -64.52575676 206.90764506 -61.44628906 195.81054688 C-60.44088605 192.0460949 -59.63090853 188.24654159 -58.8125 184.4375 C-70.75427234 174.66695899 -83.2951742 168.41249778 -97.875 163.4375 C-98.75534912 163.13440918 -99.63569824 162.83131836 -100.54272461 162.51904297 C-105.49897894 160.9059515 -109.60189342 160.09813892 -114.8125 160.4375 C-115.11317383 161.01902832 -115.41384766 161.60055664 -115.72363281 162.19970703 C-150.77142421 229.89784075 -150.77142421 229.89784075 -172.8125 255.4375 C-173.66328125 256.50484375 -173.66328125 256.50484375 -174.53125 257.59375 C-181.86763002 266.59119719 -192.2608971 274.12289311 -203.8125 276.4375 C-212.61665562 277.20471928 -218.62166808 276.41086601 -225.64453125 271.03515625 C-232.36908371 265.04312584 -236.77291605 256.64280118 -237.6875 247.6875 C-237.75427855 246.27179481 -237.80622891 244.85476541 -237.8125 243.4375 C-237.07386719 243.31375 -236.33523438 243.19 -235.57421875 243.0625 C-227.05542781 241.33059841 -221.38830738 238.05049447 -214.8125 232.4375 C-214.14992188 231.87546875 -213.48734375 231.3134375 -212.8046875 230.734375 C-191.26341605 210.72532788 -175.0211505 180.81513945 -160.8125 155.4375 C-178.22983041 158.19089834 -194.92344097 161.35136055 -207.8125 174.4375 C-208.1425 175.0975 -208.4725 175.7575 -208.8125 176.4375 C-209.4725 176.4375 -210.1325 176.4375 -210.8125 176.4375 C-211.797767 174.21085683 -212.77581444 171.98148683 -213.75 169.75 C-214.02779297 169.12416016 -214.30558594 168.49832031 -214.59179688 167.85351562 C-218.50789657 158.84176813 -219.33467555 149.28346178 -216.375 139.8125 C-211.81460127 128.72353045 -202.70251582 121.74005036 -191.91015625 117.22265625 C-183.67659672 114.11711232 -176.56848004 113.24437638 -167.8125 113.25 C-166.78318359 113.24935547 -165.75386719 113.24871094 -164.69335938 113.24804688 C-158.13884942 113.29347826 -151.96459357 113.69887433 -145.53125 115 C-142.05597181 115.55924017 -139.32591291 115.93941613 -135.8125 115.4375 C-133.84374575 113.09920612 -132.59515941 111.21395125 -131.1875 108.5625 C-130.33404297 107.08250902 -129.47440391 105.60606984 -128.609375 104.1328125 C-128.15884766 103.35969727 -127.70832031 102.58658203 -127.24414062 101.79003906 C-124.84999219 97.855862 -122.15724581 94.15104561 -119.4375 90.4375 C-118.88755371 89.68573486 -118.33760742 88.93396973 -117.77099609 88.15942383 C-116.6626244 86.65052764 -115.55180203 85.1434284 -114.43847656 83.63818359 C-112.87464083 81.52160472 -111.32326447 79.39637848 -109.7734375 77.26953125 C-102.90608506 67.90793653 -95.56303773 59.0784142 -87.8125 50.4375 C-87.30187012 49.86370605 -86.79124023 49.28991211 -86.26513672 48.69873047 C-63.41352221 23.08523649 -35.87460739 0.49050084 0 0 Z " fill="#020202" transform="translate(988.8125,820.5625)"/>
<path d="M0 0 C1.46566406 1.12921875 1.46566406 1.12921875 2.9609375 2.28125 C6.13758537 4.9522498 8.42963116 8.06131563 10.625 11.5625 C11.20411133 12.4740686 11.20411133 12.4740686 11.79492188 13.40405273 C15.19850494 18.95798953 17.41671261 24.67627477 19 31 C19.18949219 31.75539063 19.37898437 32.51078125 19.57421875 33.2890625 C23.36545745 57.42777493 14.6862781 79.47350971 0.90625 98.9609375 C-14.1855093 119.63239654 -34.81435322 138.49539517 -61 143 C-71.0901379 143.67267586 -79.21750207 140.43157376 -87 134 C-93.62413422 127.55250936 -97.0810014 117.93745631 -97.375 108.75 C-96.22222222 97.22222222 -96.22222222 97.22222222 -93 94 C-92.44054687 94.433125 -91.88109375 94.86625 -91.3046875 95.3125 C-83.93271255 100.4325855 -77.82368297 101.11032982 -69 100 C-53.82338201 97.04577283 -41.63625436 86.63625436 -31 76 C-30.18660156 75.18660156 -29.37320313 74.37320313 -28.53515625 73.53515625 C-16.36649 60.70085356 -7.56433396 44.44957274 -7.78125 26.47265625 C-8.11547977 22.69466614 -9.084237 20.28416515 -11 17 C-17.09433449 13.08596621 -24.90546218 14.60984813 -31.62475586 16.02758789 C-64.02509641 23.67981039 -90.82153415 48.79245978 -110 75 C-111.15242187 76.57007813 -111.15242187 76.57007813 -112.328125 78.171875 C-135.40985147 110.61542059 -150.45555813 147.6080176 -144.34375 188.15625 C-141.81912101 201.34526007 -135.78872275 215.70381665 -124.6171875 223.70703125 C-109.4017651 233.26901689 -94.33124845 233.34269882 -77.1875 229.54345703 C-59.71767305 225.2032969 -45.06937218 216.14709952 -32 204 C-31.42749512 203.47132324 -30.85499023 202.94264648 -30.26513672 202.39794922 C-13.11519596 186.38407961 -0.6683319 167.33013092 9.875 146.5 C14.98227936 136.46848906 20.7902673 127.62956503 28 119 C28.83144531 117.98679687 29.66289063 116.97359375 30.51953125 115.9296875 C41.93693998 102.68623117 58.15138558 90.49184678 76.14233398 88.79833984 C78.37041629 88.69748117 80.58224814 88.67069147 82.8125 88.6875 C83.99489258 88.69595947 83.99489258 88.69595947 85.20117188 88.70458984 C96.45116419 88.93761881 106.78778424 91.89677048 115.00390625 99.96875 C127.54778491 114.92387099 128.17265928 133.45248688 127 152 C125.64453635 163.71227876 122.02530475 174.96340623 118 186 C134.28917585 178.72361688 142.92689341 168.02733279 152 153 C157.65360454 154.31479175 159.95985828 156.20947365 163 161 C162.23828576 174.28355325 149.73707626 187.59925204 140.49609375 196.37890625 C130.19805379 205.09008933 118.56337729 210.55360724 105 210 C104.62681641 211.06541016 104.62681641 211.06541016 104.24609375 212.15234375 C96.82448731 229.11269202 77.06019459 248.03825137 60.18310547 254.71923828 C45.3079516 260.17702855 32.03665977 262.52425032 17 256 C4.79346556 248.85019379 -0.85816218 237.74748893 -4.71484375 224.5546875 C-6.13103381 218.78655573 -6.58005981 212.91231588 -7 207 C-7.59425781 207.79921875 -8.18851563 208.5984375 -8.80078125 209.421875 C-14.78389961 217.38307559 -21.13546731 224.78969826 -28 232 C-29.07314453 233.16982422 -29.07314453 233.16982422 -30.16796875 234.36328125 C-48.78107134 254.02402563 -74.65658316 265.55057216 -101.5859375 267.22265625 C-125.50154129 267.79923789 -144.59946666 259.74129963 -161.875 243.5 C-184.60174959 219.37725842 -189.83920987 186.1380906 -189.13623047 154.29443359 C-188.83581875 147.02963841 -187.66092551 140.06594327 -186 133 C-185.75854248 131.92975586 -185.75854248 131.92975586 -185.51220703 130.83789062 C-179.46137554 104.68155852 -166.45334709 81.018474 -150 60 C-149.25105469 59.03835938 -148.50210938 58.07671875 -147.73046875 57.0859375 C-121.31197598 24.05092131 -85.57335635 -4.01490636 -42.5390625 -9.52734375 C-27.0787663 -11.24551669 -12.52360071 -10.08054981 0 0 Z " fill="#010101" transform="translate(811,353)"/>
<path d="M0 0 C7.75519013 5.78537184 12.48551167 11.97320857 14.953125 21.45703125 C17.36254201 39.58096447 10.04272843 58.13533206 -0.6171875 72.53564453 C-2.28237448 74.69240203 -3.99756527 76.80189466 -5.74365234 78.89355469 C-7.03659165 80.44469431 -8.30262947 82.01490052 -9.56640625 83.58984375 C-20.03370238 96.46610623 -31.87215411 108.36279332 -45.046875 118.45703125 C-46.35592919 119.48248541 -47.66448447 120.50857663 -48.97265625 121.53515625 C-58.05239907 128.61671074 -67.29735788 135.32684177 -77.046875 141.45703125 C-78.01995605 142.06925537 -78.01995605 142.06925537 -79.01269531 142.69384766 C-95.90902507 153.20994604 -115.83630138 164.92253443 -135.76953125 168.0390625 C-139.40120219 169.61033372 -139.70373689 170.02373896 -141.26953125 173.4375 C-141.91435777 175.16170637 -142.52564809 176.89869285 -143.109375 178.64453125 C-143.60570435 180.03466431 -143.60570435 180.03466431 -144.11206055 181.45288086 C-147.75191003 191.93905124 -150.4377997 202.67793182 -153.046875 213.45703125 C-153.3899441 214.82992413 -153.73476147 216.2023824 -154.08203125 217.57421875 C-154.74612724 220.19971454 -155.4020342 222.82675955 -156.046875 225.45703125 C-155.25410156 225.2146875 -154.46132813 224.97234375 -153.64453125 224.72265625 C-142.25119572 221.44943278 -130.71932535 219.68700812 -119.01000977 217.92822266 C-116.16940815 217.47651621 -113.35157295 216.95390952 -110.52734375 216.41015625 C-104.74501538 215.34212252 -98.96903454 214.78110395 -93.109375 214.33203125 C-91.48672729 214.20683105 -91.48672729 214.20683105 -89.83129883 214.07910156 C-67.95864749 212.50448918 -43.72637869 211.37397717 -25.9140625 226.53125 C-18.97937157 233.68355676 -15.64291612 241.0057994 -15.609375 250.95703125 C-15.60550781 251.7464209 -15.60164062 252.53581055 -15.59765625 253.34912109 C-15.74280546 260.81976963 -17.72458999 266.7412694 -21.046875 273.45703125 C-24.55398005 273.45703125 -24.68932804 273.10939661 -27.046875 270.76953125 C-43.7910751 255.79159698 -72.31571978 255.39925494 -93.39257812 256.24560547 C-143.04812177 259.11851439 -199.19666222 270.74392739 -238.32421875 303.20703125 C-241.046875 305.45703125 -241.046875 305.45703125 -244.046875 307.45703125 C-248.45238596 297.68828956 -250.14080335 287.19775951 -246.90625 276.78515625 C-238.21645044 257.80258439 -220.46031952 247.67502602 -202.046875 239.45703125 C-201.386875 239.45703125 -200.726875 239.45703125 -200.046875 239.45703125 C-200.77390625 237.79607422 -200.77390625 237.79607422 -201.515625 236.1015625 C-203.3785485 231.09825087 -203.58400082 226.44459383 -203.546875 221.14453125 C-203.54115479 220.1817627 -203.53543457 219.21899414 -203.52954102 218.22705078 C-203.2908544 208.45295461 -201.13427367 199.6843932 -198.046875 190.45703125 C-197.74201172 189.54421387 -197.43714844 188.63139648 -197.12304688 187.69091797 C-195.17343131 181.91788964 -193.13936052 176.17970779 -191.046875 170.45703125 C-191.88653809 170.30028931 -191.88653809 170.30028931 -192.74316406 170.14038086 C-211.365045 166.37876091 -227.49481745 154.05841322 -238.046875 138.45703125 C-248.66805742 120.52349407 -252.61514626 99.49285269 -248.24609375 78.859375 C-247.18662959 74.92213766 -245.68377685 71.1853781 -244.046875 67.45703125 C-243.72509277 66.69310059 -243.40331055 65.92916992 -243.07177734 65.14208984 C-238.5608893 54.54076484 -233.51088447 45.28787908 -226.046875 36.45703125 C-225.40105469 35.63847656 -224.75523437 34.81992187 -224.08984375 33.9765625 C-217.85890844 26.40045582 -208.93832934 19.27436978 -198.91796875 18.0859375 C-185.96891018 17.83550064 -177.50020663 21.45138017 -168.0078125 30.17578125 C-165.98386522 32.53033347 -165.00733127 34.524025 -164.046875 37.45703125 C-164.72492188 37.78574219 -165.40296875 38.11445312 -166.1015625 38.453125 C-185.34495788 48.28804591 -195.4229722 64.5471154 -202.5078125 84.3671875 C-207.88838707 102.51231663 -207.30716157 123.15410811 -198.296875 139.89453125 C-194.54731298 145.73775734 -189.86437165 149.88328592 -183.046875 151.45703125 C-182.66055908 150.66345215 -182.27424316 149.86987305 -181.8762207 149.05224609 C-163.22864985 110.88708632 -141.41208438 74.2887536 -113.046875 42.45703125 C-111.86158203 41.10544922 -111.86158203 41.10544922 -110.65234375 39.7265625 C-85.05588421 10.81287353 -40.08621322 -25.32163469 0 0 Z " fill="#010101" transform="translate(601.046875,549.54296875)"/>
<path d="M0 0 C8.75044838 2.49961431 15.35890815 6.45212584 20.484375 14.26171875 C24.6921887 22.50964343 25.50048475 30.30801498 22.859375 39.21875 C16.29648562 59.19839415 7.3994139 78.54882989 -1 97.8125 C-18.45289859 137.35362893 -18.45289859 137.35362893 -33.75 177.75 C-34.10223633 178.75184326 -34.45447266 179.75368652 -34.81738281 180.78588867 C-37.09760782 187.80686903 -38.89229924 196.17329561 -36.10449219 203.28417969 C-35.1024731 205.16127155 -35.1024731 205.16127155 -33 206 C-27.13881823 206.83731168 -23.90763408 205.29456175 -19.3125 201.93359375 C-9.73909428 193.92880349 -3.48020727 183.49313891 3 173 C3.47791992 172.22962402 3.95583984 171.45924805 4.44824219 170.66552734 C10.10863473 161.52694747 15.64490751 152.32115075 21 143 C25.40274459 144.61778702 27.95127922 146.3584724 31 150 C32.19335819 153.29553466 32.09259345 154.74132949 30.89868164 158.07666016 C30.32496826 159.21925293 29.75125488 160.3618457 29.16015625 161.5390625 C28.84717087 162.16916229 28.53418549 162.79926208 28.2117157 163.44845581 C27.17769711 165.51567238 26.12172968 167.57059977 25.0625 169.625 C24.70297241 170.33197021 24.34344482 171.03894043 23.97302246 171.76733398 C13.62063077 192.11920795 2.57413958 212.32789621 -12 230 C-13.16402344 231.43666016 -13.16402344 231.43666016 -14.3515625 232.90234375 C-21.62976477 241.45358846 -30.19874305 249.21987431 -41.75 250.375 C-48.53859501 250.15433821 -54.79229097 247.47751512 -59.8125 242.9375 C-68.06175837 233.89055391 -70.34572416 221.87645709 -70.25 210.0625 C-70.25773437 209.11181641 -70.26546875 208.16113281 -70.2734375 207.18164062 C-70.25761999 201.44383795 -69.63692571 196.5018892 -68 191 C-68.556875 192.01578125 -69.11375 193.0315625 -69.6875 194.078125 C-81.57895485 215.60462655 -95.54070558 240.37111055 -119.6875 249.375 C-128.53915116 251.04512286 -135.35932905 249.54781935 -143.1875 245.25 C-152.45027317 237.83978147 -156.41069403 228.59356883 -158 217 C-158.41141495 213.00407318 -158.73828413 209.00838524 -159 205 C-159.38744385 205.41773682 -159.7748877 205.83547363 -160.17407227 206.26586914 C-161.96883381 208.19936653 -163.7656558 210.130938 -165.5625 212.0625 C-166.17158203 212.71927734 -166.78066406 213.37605469 -167.40820312 214.05273438 C-183.25733663 231.07587777 -200.96764822 247.26911638 -225.5625 248.375 C-241.86039681 247.6612235 -255.20217788 239.67895004 -266 228 C-276.99032103 214.20692642 -277.33629235 196.82409271 -276 180 C-275.26266402 174.15299457 -273.80689599 168.59899085 -272 163 C-271.80164551 162.36255859 -271.60329102 161.72511719 -271.39892578 161.06835938 C-264.48117025 139.34099355 -252.55774285 120.51136982 -237 104 C-236.31550781 103.23945313 -235.63101562 102.47890625 -234.92578125 101.6953125 C-223.4849857 89.47205958 -207.55943468 80.21988646 -190.625 79.625 C-180.11871831 79.81933585 -171.8161727 84.15422846 -164.46484375 91.54296875 C-159.01403895 97.72478527 -158.54134729 103.26453098 -158.69921875 111.2578125 C-160.13420364 129.11126089 -171.23687405 144.25074373 -183 157 C-183.65484375 157.74765625 -184.3096875 158.4953125 -184.984375 159.265625 C-188.89277722 163.50807869 -193.26331973 166.72555765 -198.0625 169.875 C-198.64040283 170.25688477 -199.21830566 170.63876953 -199.8137207 171.03222656 C-206.68430683 175.36251797 -213.96328984 177.20252997 -222 176 C-226.46813987 174.31897954 -230.60435795 172.39564205 -234 169 C-237.79163224 179.9009427 -236.56166684 191.94714324 -231.75 202.375 C-228.49195859 208.41195908 -224.55608387 211.7627607 -218 214 C-206.73548319 215.50895397 -197.38617291 211.60061417 -188.46484375 204.9765625 C-184.13012427 201.50054339 -180.03075308 197.82259213 -176 194 C-175.18660156 193.23945312 -174.37320312 192.47890625 -173.53515625 191.6953125 C-166.60119166 185.01329291 -160.75810113 177.68726443 -155 170 C-154.58250488 169.44860352 -154.16500977 168.89720703 -153.73486328 168.32910156 C-148.30357219 161.12041453 -143.52162933 153.64893739 -138.9375 145.875 C-134.38532392 138.1645089 -129.66369947 130.95576127 -124 124 C-123.35248779 123.20239258 -123.35248779 123.20239258 -122.69189453 122.38867188 C-106.64396601 102.72326568 -86.99940212 83.56630553 -61 79 C-52.82803503 78.22708509 -45.59229546 77.63417811 -39 83 C-38.01 84.485 -38.01 84.485 -37 86 C-34.14801886 80.4331256 -31.58590354 74.8227739 -29.19921875 69.04296875 C-28.84554733 68.19360748 -28.49187592 67.34424622 -28.12748718 66.46914673 C-27.37044913 64.65077454 -26.61458444 62.83191348 -25.85980225 61.01260376 C-23.86750128 56.21140427 -21.86573438 51.41415999 -19.86328125 46.6171875 C-19.45847534 45.64721329 -19.05366943 44.67723907 -18.63659668 43.6778717 C-14.6054758 34.03199686 -10.50250942 24.41746081 -6.375 14.8125 C-6.04776947 14.05085541 -5.72053894 13.28921082 -5.38339233 12.50448608 C-3.5915258 8.33520281 -1.79707445 4.16704176 0 0 Z " fill="#010101" transform="translate(1368,363)"/>
<path d="M0 0 C11.4760637 3.36709892 22.82882187 7.12007673 34.18677521 10.86217403 C37.70968488 12.02272655 41.234346 13.1772077 44.76367188 14.31811523 C48.20311315 15.43011108 51.6374706 16.5566254 55.06871033 17.69366646 C56.37157099 18.1226407 57.67615345 18.54642223 58.98243713 18.9648571 C60.8007953 19.54840105 62.61251217 20.15251922 64.42382812 20.75756836 C65.45511841 21.09493515 66.48640869 21.43230194 67.5489502 21.77989197 C70 23 70 23 71.30992126 24.92436218 C72.38522543 28.15869165 72.75360785 31.43122269 73.09765625 34.8046875 C73.18185318 35.62121796 73.26605011 36.43774841 73.35279846 37.27902222 C74.6871205 51.880633 74.39071056 66.61903564 74.45629883 81.27197266 C74.58251813 106.89602747 75.90379008 132.14840847 91 154 C93.07549906 155.36981594 93.07549906 155.36981594 95 156 C99.13750119 151.59469939 101.91093613 147.6868961 104 142 C106.74118741 143.3705937 106.89379479 144.88512085 108.0625 147.6875 C110.86469792 153.52541234 114.52880697 155.85822368 120 159 C121.34679376 159.98179648 122.68441297 160.97676564 124 162 C123.16855469 162.39832031 122.33710937 162.79664063 121.48046875 163.20703125 C120.39378906 163.73683594 119.30710937 164.26664063 118.1875 164.8125 C117.10855469 165.33457031 116.02960938 165.85664063 114.91796875 166.39453125 C112.42891467 167.76401081 110.73277648 168.78083012 109 171 C109 171.66 109 172.32 109 173 C133.13844523 190.80310578 159.99945733 191.91706592 188.74108887 192.55380249 C198.72588212 192.77787029 208.66815697 193.1011284 218.625 193.9375 C219.53419189 194.01226562 220.44338379 194.08703125 221.38012695 194.1640625 C238.75896064 195.75896064 238.75896064 195.75896064 242 199 C242.74815796 201.0149488 243.41742137 203.05944971 244.04711914 205.11450195 C244.24087631 205.74074463 244.43463348 206.3669873 244.63426208 207.01220703 C245.27405067 209.08572744 245.90471118 211.16190268 246.53515625 213.23828125 C246.97782547 214.68090857 247.42098313 216.1233861 247.86460876 217.5657196 C248.79390576 220.59171454 249.71900828 223.61894834 250.64086914 226.6472168 C251.82073306 230.5227089 253.00818782 234.39581938 254.19846439 238.26812458 C255.11420711 241.24865826 256.02725473 244.23001166 256.93935966 247.21166039 C257.37621679 248.63951362 257.81358619 250.06721023 258.25148201 251.49474525 C258.86426969 253.4948423 259.47375806 255.49591465 260.08227539 257.49731445 C260.60284264 259.20368828 260.60284264 259.20368828 261.13392639 260.9445343 C261.89281913 263.62187109 262.50314378 266.26363112 263 269 C262.360625 268.360625 261.72125 267.72125 261.0625 267.0625 C260.60230469 266.60746094 260.14210938 266.15242188 259.66796875 265.68359375 C258.4416798 264.44581731 257.23921204 263.18432553 256.05078125 261.91015625 C247.13606186 252.54730016 236.94187896 245.11102527 223.75 244.5 C213.13825438 244.7818362 204.88569573 249.73212917 196.27734375 255.546875 C194 257 194 257 191 258 C190.59910156 257.10539062 190.19820312 256.21078125 189.78515625 255.2890625 C183.86200815 242.51611167 176.48568651 233.23542116 163.421875 227.40234375 C158.41845145 225.57540349 153.59642823 225.46524032 148.3125 225.5 C147.34368896 225.50354492 146.37487793 225.50708984 145.37670898 225.51074219 C134.4564445 225.76243263 126.28345898 229.42992461 117 235 C116.34 235 115.68 235 115 235 C114.5153125 234.0821875 114.030625 233.164375 113.53125 232.21875 C108.04118456 222.06856098 101.83008014 212.10202955 90.16796875 208.421875 C76.64066104 205.78953404 64.61540973 210.63764607 52.4609375 216.046875 C50 217 50 217 47 217 C47.69599247 212.18525759 49.54381526 208.00166728 51.4375 203.5625 C56.10669491 192.53934913 59.76070684 182.36280382 55.25 170.5 C50.76274781 160.10097112 40.64217871 154.14249531 31 149 C32.102087 145.19279037 33.5753325 141.85254171 35.4375 138.375 C41.03215365 127.26845384 43.10566345 114.71510705 40.15625 102.5078125 C35.30309958 88.57140083 26.50244084 80.93086326 14 74 C12.34928727 73.29475558 10.68809188 72.61038351 9 72 C9.65355469 71.01773438 9.65355469 71.01773438 10.3203125 70.015625 C18.6550264 57.24294656 24.5215404 46.50449664 23 31 C19.81202559 20.29938097 11.24136231 10.21441782 2.65625 3.18359375 C1.7796875 2.46300781 0.903125 1.74242188 0 1 C0 0.67 0 0.34 0 0 Z " fill="#FCFCFC" transform="translate(1000,65)"/>
<path d="M0 0 C9.92450549 1.17623769 18.31789968 7.33427042 25.0390625 14.4921875 C29.86775714 20.66753005 32.56560992 27.87826201 35.375 35.125 C39.53349939 45.25637589 47.30188918 54.72420816 57.5703125 59.09375 C59.70189055 59.81541279 61.81660254 60.45802191 64 61 C63.08841108 65.40256015 61.08586349 69.21297719 59.15625 73.24609375 C57.0590187 78.24118857 56.84091479 82.7943726 56.8125 88.1875 C56.79832031 89.41855469 56.78414062 90.64960938 56.76953125 91.91796875 C56.67091766 95.10585705 56.67091766 95.10585705 59 97 C62.48331435 93.98112756 63.79157144 91.43090471 65 87 C65.99 88.485 65.99 88.485 67 90 C68.31054623 91.35573748 69.64748503 92.68612831 71 94 C72.175625 95.3303125 72.175625 95.3303125 73.375 96.6875 C76.34478649 99.30374048 78.11085888 99.72866457 82 100 C80.6875 101.5 80.6875 101.5 79 103 C78.01 103 77.02 103 76 103 C75.71125 103.78375 75.4225 104.5675 75.125 105.375 C74 108 74 108 72 110 C82.92233445 111.143035 89.86085058 108.6773504 99 103 C99.8765625 102.26265625 100.753125 101.5253125 101.65625 100.765625 C104 99 104 99 108 99 C108.515625 100.175625 109.03125 101.35125 109.5625 102.5625 C114.0557273 111.43936369 122.13920124 117.36123125 131.3359375 120.8984375 C135.06001219 122.04906523 138.81246368 122.95742419 142.61328125 123.8203125 C150.96965012 125.81912234 157.39486654 128.31090695 164 134 C164.64453125 134.5465625 165.2890625 135.093125 165.953125 135.65625 C170.64220421 139.97835779 174.36285201 145.1833873 177 151 C176.67 151.66 176.34 152.32 176 153 C175.319375 152.401875 174.63875 151.80375 173.9375 151.1875 C169.1169329 147.59771599 164.26045786 145.25316758 158.109375 145.52734375 C150.28250357 147.28114272 145.15808236 153.57535511 141 160 C136 155 136 155 134.0625 152.875 C129.59415348 148.8128668 125.36724137 147.43418569 119.4375 147.64453125 C112.82510213 148.60883927 106.88167826 151.44376696 102 156 C101.49210938 155.38511719 100.98421875 154.77023437 100.4609375 154.13671875 C94.28785494 146.70629921 94.28785494 146.70629921 85.39453125 143.6953125 C79.26000545 143.41383628 75.6694333 143.9615712 71 148 C67 146 67 146 65.1875 144.875 C61.88528921 143.55411568 59.53336991 143.58078662 56 144 C54.03011085 145.19730429 52.32316476 146.49942104 50.578125 148.00390625 C50.05734375 148.33261719 49.5365625 148.66132813 49 149 C46 148 46 148 44.25 145.9375 C42.04749591 143.66990341 42.04749591 143.66990341 38.5 143.625 C35.29877445 143.96798845 33.73611331 144.49993788 31 146 C31.04640625 145.25234375 31.0928125 144.5046875 31.140625 143.734375 C31.5479253 137.72494716 31.5479253 137.72494716 29.1875 132.4375 C28.465625 131.963125 27.74375 131.48875 27 131 C25.515 130.01 25.515 130.01 24 129 C24.66 128.01 25.32 127.02 26 126 C28.42090001 121.7288407 28.62850697 118.87092905 28 114 C26.20636089 111.1899654 24.98119065 109.49059532 22 108 C22.33 106.88625 22.66 105.7725 23 104.625 C24.57304648 98.12613642 25.41040524 91.79931844 22.0625 85.75 C18.94146778 81.31200042 14.64265763 78.67028674 10 76 C10.57109098 73.60759184 11.22294128 71.38363293 12.0625 69.0625 C13.79630526 62.8741489 14.32608847 55.60832656 12.08984375 49.5234375 C8.98281708 44.18854284 4.89241751 40.96413917 -1 39 C0.84232112 35.09285522 3.21308575 31.66904682 5.66015625 28.12109375 C8.79402122 23.15990227 8.70574376 17.67697176 8 12 C6.71223554 8.99687361 5.01994398 6.55498867 3 4 C2.401875 3.175 1.80375 2.35 1.1875 1.5 C0.5996875 0.7575 0.5996875 0.7575 0 0 Z " fill="#FCFCFC" transform="translate(921,227)"/>
<path d="M0 0 C0.66 0 1.32 0 2 0 C1.67 0.639375 1.34 1.27875 1 1.9375 C-0.33937615 6.03933946 -0.62851401 9.72455283 0 14 C2.32129016 18.04076435 4.57240873 19.64712489 9 21 C6.62930444 22.91185125 4.25912646 24.80957433 1.8046875 26.61328125 C-4.68138629 31.36439395 -4.68138629 31.36439395 -9 38 C-9.83115941 43.76562161 -9.83472717 49.28329057 -6.48828125 54.296875 C-3.33829975 57.90157823 0.31039165 60.96474526 4 64 C2.64500817 66.70998367 1.1827218 66.95948475 -1.5625 68.1875 C-12.89915158 73.76687916 -18.83793497 82.15412261 -23 94 C-24.22602517 101.67878921 -22.20034705 107.58595653 -18 114 C-16.42535767 115.89382659 -14.87736084 117.39083357 -13 119 C-14.87143015 123.90911386 -17.25448043 128.4958508 -19.66015625 133.16015625 C-21.58257349 137.23478405 -22.12505401 140.49114256 -22.09765625 144.984375 C-22.09443359 145.91894531 -22.09121094 146.85351562 -22.08789062 147.81640625 C-22.07951172 148.78449219 -22.07113281 149.75257813 -22.0625 150.75 C-22.05573242 152.22533203 -22.05573242 152.22533203 -22.04882812 153.73046875 C-22.03706483 156.15370791 -22.02062684 158.57682273 -22 161 C-25.81982677 160.29585314 -28.92575255 159.24116509 -32.4375 157.5625 C-34.28040593 156.68430158 -36.13502941 155.83031284 -38 155 C-38.84949219 154.61972656 -39.69898438 154.23945313 -40.57421875 153.84765625 C-45.82165545 152.54925971 -50.99352887 152.7925982 -56.375 152.875 C-57.49261719 152.88402344 -58.61023438 152.89304687 -59.76171875 152.90234375 C-62.50803462 152.92581654 -65.25390472 152.95865272 -68 153 C-68.26989746 152.4536792 -68.53979492 151.9073584 -68.81787109 151.34448242 C-69.17445801 150.62623291 -69.53104492 149.9079834 -69.8984375 149.16796875 C-70.25083496 148.45664795 -70.60323242 147.74532715 -70.96630859 147.01245117 C-74.60705095 139.92444002 -80.45076666 136.90156918 -87.8125 134.37890625 C-99.20512179 132.4055414 -111.95528851 133.17612864 -121.6640625 139.82421875 C-123.22660509 141.04697033 -124.76225052 142.30555173 -126.2578125 143.609375 C-128 145 -128 145 -130 145 C-130.21914063 144.28714844 -130.43828125 143.57429687 -130.6640625 142.83984375 C-133.22187114 135.11442984 -136.04214426 129.85333786 -142.6875 125.0625 C-152.46870665 121.92513183 -160.05199185 124.76956635 -169 129 C-170.66191487 129.67842552 -172.3271146 130.3490955 -174 131 C-174.2475 129.9275 -174.495 128.855 -174.75 127.75 C-176.00929634 123.97211098 -176.96797052 122.46352396 -180 120 C-182.83269666 118.58365167 -185.47466438 118.6536995 -188.625 118.4375 C-190.40777344 118.31181641 -190.40777344 118.31181641 -192.2265625 118.18359375 C-193.14179688 118.12300781 -194.05703125 118.06242187 -195 118 C-192.69853287 115.69853287 -190.84012878 114.97500614 -187.828125 113.7578125 C-186.77786133 113.33290527 -185.72759766 112.90799805 -184.64550781 112.47021484 C-152.69412471 99.81188001 -152.69412471 99.81188001 -141 102 C-137.79005302 103.50453453 -134.92235577 105.259819 -131.94921875 107.1875 C-114.83020215 117.7083261 -91.35260936 117.17882288 -72 117 C-72.433125 116.52949219 -72.86625 116.05898438 -73.3125 115.57421875 C-73.869375 114.95160156 -74.42625 114.32898438 -75 113.6875 C-75.556875 113.07261719 -76.11375 112.45773437 -76.6875 111.82421875 C-78 110 -78 110 -78 107 C-76.081875 106.690625 -76.081875 106.690625 -74.125 106.375 C-65.68834216 104.48540156 -58.99603878 99.99445429 -54 93 C-49.33130294 94.50065263 -48.22146567 97.9257573 -46 102 C-38.73258602 85.51344296 -32.79357764 70.21681923 -32.875 51.9375 C-32.87113281 51.06544922 -32.86726562 50.19339844 -32.86328125 49.29492188 C-32.86883701 45.62534556 -32.94937441 42.26947906 -33.62890625 38.65234375 C-34.21238539 34.48200336 -32.61522138 32.47861877 -30.390625 29.04296875 C-22.03487123 18.40713184 -11.6607945 9.25836194 -1 1 C-0.67 0.67 -0.34 0.34 0 0 Z " fill="#FBFBFB" transform="translate(607,333)"/>
<path d="M0 0 C15.00435277 5.82629032 38.92537074 16.0404204 47 31 C47.98257722 34.4326399 48.65223386 37.84062929 49.27734375 41.35546875 C53.16530287 60.96339231 66.69597366 79.5391018 80 94 C80.66 90.7 81.32 87.4 82 84 C86 84 86 84 88.25 85.8125 C95.35013512 91.46033476 102.28292028 91.39226859 111 91 C110.88541307 92.43836751 110.75790884 93.87570966 110.625 95.3125 C110.55539062 96.11300781 110.48578125 96.91351562 110.4140625 97.73828125 C110 100 110 100 108 103 C126.15570387 100.48393395 149.00960882 91.29754034 160.79296875 76.79296875 C161.77936986 75.44123389 162.73705885 74.06747379 163.6484375 72.6640625 C165.78842649 70.02927837 168.03495569 69.11760397 171.3840332 68.70947266 C174.36105912 68.658779 177.33495094 68.62140583 180.3125 68.625 C181.40941162 68.62371094 182.50632324 68.62242187 183.63647461 68.62109375 C194.99536907 68.76420818 205.91737215 70.6266165 217 73 C217 73.66 217 74.32 217 75 C216.38511719 75.17015625 215.77023437 75.3403125 215.13671875 75.515625 C214.32847656 75.75796875 213.52023437 76.0003125 212.6875 76.25 C211.88699219 76.48203125 211.08648438 76.7140625 210.26171875 76.953125 C207.47295763 78.24395052 206.461778 79.30133291 205 82 C204.63899466 84.81829883 204.63899466 84.81829883 204.8125 87.75 C204.83957031 88.73484375 204.86664062 89.7196875 204.89453125 90.734375 C204.92933594 91.48203125 204.96414063 92.2296875 205 93 C204.16597656 92.7834375 203.33195312 92.566875 202.47265625 92.34375 C189.39429776 88.94252376 189.39429776 88.94252376 176.79296875 92.49609375 C172.13935677 96.3994502 170.34322365 101.67683691 169.4765625 107.54296875 C169.22170974 110.70107654 169.0546097 113.83263723 169 117 C167.39566191 116.52140759 165.79153584 116.04210442 164.1875 115.5625 C163.29417969 115.29566406 162.40085937 115.02882813 161.48046875 114.75390625 C159.64526945 114.19612127 157.81966274 113.60655425 156 113 C146.16033244 112.39554912 136.77159509 111.85927009 128 117 C127.071875 117.53625 126.14375 118.0725 125.1875 118.625 C119.24547916 125.07633691 117.20160599 132.38592602 117 141 C116.20078125 141.08636719 115.4015625 141.17273438 114.578125 141.26171875 C104.38132783 142.56623858 93.7698733 144.63721533 87 153 C85.96572182 154.27685373 84.923689 155.54745526 83.875 156.8125 C83.39804688 157.41707031 82.92109375 158.02164062 82.4296875 158.64453125 C81 160 81 160 78 160 C77.70867187 158.81664062 77.41734375 157.63328125 77.1171875 156.4140625 C73.5117519 142.29127828 68.51474751 132.40960004 58 122 C57.01 121.505 57.01 121.505 56 121 C56.495 119.80375 56.99 118.6075 57.5 117.375 C60.10927486 109.40918493 60.58496091 100.48966325 57.0625 92.75 C50.71269964 81.90539714 41.84000833 74.22723836 30 70 C27.33427985 69.50686503 24.70184283 69.27476368 22 69 C22.97063221 66.52969729 23.95993792 64.08699612 25.0703125 61.67578125 C27.70556908 55.77085448 29.31869362 50.45953828 28 44 C23.76932268 33.77035444 14.23923282 29.75925826 4.6171875 25.6640625 C4.08351563 25.44492187 3.54984375 25.22578125 3 25 C3.3609375 24.56429687 3.721875 24.12859375 4.09375 23.6796875 C6.32812146 20.81224413 7.86043915 18.65593598 8.625 15.0625 C7.44383511 9.27479203 3.6190422 4.57142173 0 0 Z " fill="#FCFCFC" transform="translate(1359,879)"/>
<path d="M0 0 C4.25002111 7.76090811 0.62666923 18.46076118 -1.64453125 26.4140625 C-4.29030262 35.08063856 -7.64554547 43.34563393 -11.4453125 51.56640625 C-12.15899742 53.11638557 -12.15899742 53.11638557 -12.88710022 54.69767761 C-19.17406568 68.23741382 -25.96617891 81.52723148 -32.72583008 94.83520508 C-41.20836506 111.5560608 -49.11448521 128.4231593 -56.5625 145.625 C-60.18458411 144.41763863 -60.7363527 143.29700303 -62.9375 140.25 C-74.18044066 125.93154477 -89.99966237 117.47405412 -105.5625 108.625 C-103.93679194 102.86885927 -101.18282965 97.8949597 -98.3125 92.6875 C-97.78599854 91.7289209 -97.25949707 90.7703418 -96.71704102 89.78271484 C-87.53164846 73.21536213 -77.72334724 56.9446262 -66.5625 41.625 C-66.13437012 41.03460937 -65.70624023 40.44421875 -65.26513672 39.8359375 C-53.80191285 24.20152928 -23.27028905 -12.48649657 0 0 Z " fill="#FDFDFD" transform="translate(995.5625,841.375)"/>
<path d="M0 0 C1.38137146 0.00212242 1.38137146 0.00212242 2.79064941 0.00428772 C5.70421734 0.00984218 8.61770568 0.022386 11.53125 0.03515625 C13.51822805 0.04017714 15.50520731 0.04473902 17.4921875 0.04882812 C22.33857188 0.05979665 27.18489749 0.07702942 32.03125 0.09765625 C32.56306885 1.04592285 33.0948877 1.99418945 33.64282227 2.97119141 C34.35675581 4.23480098 35.07087715 5.49830447 35.78515625 6.76171875 C36.30801208 7.69576538 36.30801208 7.69576538 36.84143066 8.64868164 C42.15485934 18.02170504 48.85431765 25.15350568 57.03125 32.09765625 C61.01695545 35.65935048 62.48176773 38.02536003 64.03125 43.09765625 C63.19722656 43.59394531 62.36320312 44.09023438 61.50390625 44.6015625 C50.69699777 51.12532054 41.28994074 58.48949443 32.03125 67.09765625 C31.38671875 67.67644531 30.7421875 68.25523437 30.078125 68.8515625 C23.31409789 75.20349552 17.99249881 82.81707265 12.45117188 90.22021484 C10.68950751 92.54951315 8.87296449 94.83127459 7.03125 97.09765625 C0.61670986 92.55930571 -3.83696208 88.38624369 -7.6171875 81.48046875 C-10.53987953 76.32774581 -14.44410294 72.48172615 -18.96875 68.72265625 C-21.92802807 66.22856772 -23.93935399 63.8274101 -25.96875 60.53515625 C-29.66130733 54.65108116 -34.48842102 51.24269134 -40.71875 48.34765625 C-44.77754271 45.53772283 -45.19637486 43.34561767 -46.7578125 38.828125 C-50.78504131 29.74737358 -59.11244414 23.65979006 -67.96875 19.78515625 C-68.62875 19.55828125 -69.28875 19.33140625 -69.96875 19.09765625 C-66.26102135 15.98794835 -62.3577358 13.382798 -58.30078125 10.765625 C-55.90651925 9.05314615 -53.93461635 7.16416299 -51.84375 5.09765625 C-49.86328125 3.3125 -49.86328125 3.3125 -47.96875 2.09765625 C-44.53125 2.66015625 -44.53125 2.66015625 -40.96875 4.09765625 C-34.30391671 5.00771381 -27.95678672 3.38347939 -21.49609375 1.8515625 C-14.27924762 0.30909151 -7.35046308 -0.04323851 0 0 Z " fill="#010101" transform="translate(1041.96875,585.90234375)"/>
<path d="M0 0 C1.94921875 1.5078125 1.94921875 1.5078125 2.94921875 3.5078125 C2.43649414 3.75313721 1.92376953 3.99846191 1.39550781 4.2512207 C-11.86896929 10.68297735 -25.56030131 17.4731041 -32.05078125 31.5078125 C-32.16433785 34.88064676 -32.16433785 34.88064676 -31.67578125 38.2578125 C-31.54994169 42.51838054 -31.56768811 44.76490455 -33.91015625 48.3671875 C-36.09634001 50.66200151 -38.34134638 52.8701545 -40.63085938 55.06103516 C-47.33479067 61.8917602 -52.31863492 70.5293684 -56.61328125 79.0078125 C-57.11529053 79.99527466 -57.11529053 79.99527466 -57.62744141 81.00268555 C-59.47660475 84.81445484 -60.69604279 88.27584489 -61.05078125 92.5078125 C-60.72078125 93.1678125 -60.39078125 93.8278125 -60.05078125 94.5078125 C-59.91796875 96.3828125 -59.91796875 96.3828125 -59.92578125 98.5078125 C-59.92191406 99.5596875 -59.92191406 99.5596875 -59.91796875 100.6328125 C-60.05078125 102.5078125 -60.05078125 102.5078125 -61.05078125 104.5078125 C-63.98034681 104.36830938 -66.26397692 104.24693172 -68.46875 102.17578125 C-68.92894531 101.64597656 -69.38914062 101.11617188 -69.86328125 100.5703125 C-74.36494364 95.76930684 -79.24388484 95.650326 -85.58984375 95.328125 C-97.20953622 95.12185827 -108.98290833 95.93622905 -120.30078125 98.6953125 C-125.58401317 99.84001275 -127.65504825 99.40108162 -132.17578125 96.5078125 C-133.59890625 95.5178125 -133.59890625 95.5178125 -135.05078125 94.5078125 C-144.8705039 91.23457162 -154.08034315 94.18991209 -163.05078125 98.5078125 C-169.28252948 101.83537294 -175.19565606 105.56702868 -181.05078125 109.5078125 C-182.17483472 96.76853989 -179.73667541 88.23368396 -172.00390625 77.7265625 C-166.54020434 71.2658347 -160.00581963 66.25783173 -153.05078125 61.5078125 C-151.75914062 60.57775391 -151.75914062 60.57775391 -150.44140625 59.62890625 C-148.05078125 58.5078125 -148.05078125 58.5078125 -146.01171875 59.1640625 C-145.04105469 59.82921875 -145.04105469 59.82921875 -144.05078125 60.5078125 C-143.34179688 60.91 -142.6328125 61.3121875 -141.90234375 61.7265625 C-140.42187975 62.57847862 -138.94270277 63.43263536 -137.46484375 64.2890625 C-127.03737544 69.55341543 -116.7090006 68.19380656 -105.92578125 64.67578125 C-103.09264636 63.5248202 -100.62103019 62.15674059 -98.05078125 60.5078125 C-98.51484375 59.1775 -98.51484375 59.1775 -98.98828125 57.8203125 C-99.87984835 55.04072095 -100.54455132 52.37644875 -101.05078125 49.5078125 C-97.30078125 48.3828125 -97.30078125 48.3828125 -95.05078125 49.5078125 C-93.37423396 49.22838795 -91.70469971 48.89953003 -90.05078125 48.5078125 C-90.05078125 46.5278125 -90.05078125 44.5478125 -90.05078125 42.5078125 C-88.17578125 42.8203125 -88.17578125 42.8203125 -86.05078125 43.5078125 C-84.05078125 46.5078125 -84.05078125 46.5078125 -84.05078125 49.5078125 C-81.52362152 50.46048897 -80.45181714 50.68497992 -77.9375 49.57421875 C-68.53688666 43.14573538 -62.21150131 35.55807305 -58.421875 24.70703125 C-57.97129686 22.0367629 -58.01532877 19.42179234 -58.01660156 16.7199707 C-57.89803588 7.72022194 -57.89803588 7.72022194 -55.6640625 4.5234375 C-53.50707558 3.13066607 -51.48529622 2.3327611 -49.05078125 1.5078125 C-47.96796875 1.06308594 -46.88515625 0.61835938 -45.76953125 0.16015625 C-31.27371078 -5.7002036 -14.06235617 -8.30501492 0 0 Z " fill="#FCFCFC" transform="translate(888.05078125,155.4921875)"/>
<path d="M0 0 C1.10408203 0.01353516 1.10408203 0.01353516 2.23046875 0.02734375 C4.0287888 0.05069856 5.82693911 0.08656164 7.625 0.125 C5.68019736 3.4564293 3.59809635 6.58224151 1.3125 9.6875 C-6.48508171 20.71337987 -10.56312777 30.5396969 -9.375 44.125 C-8.33492653 46.68263522 -7.2147714 48.00647536 -5.375 50.125 C-4.23455849 53.23999759 -4.42797264 55.2348678 -5.3359375 58.390625 C-5.56023437 59.19886719 -5.78453125 60.00710938 -6.015625 60.83984375 C-6.37914062 62.09474609 -6.37914062 62.09474609 -6.75 63.375 C-9.53989909 73.13964683 -10.57053266 82.17476668 -10.625 92.3125 C-10.645625 93.28380859 -10.66625 94.25511719 -10.6875 95.25585938 C-10.72290174 101.71225125 -9.90224289 105.12974916 -5.6875 110.125 C-4.04409624 112.6292343 -4.05717888 114.18515465 -4.375 117.125 C-5.375 118.125 -5.375 118.125 -8.6875 118.3125 C-12.375 118.125 -12.375 118.125 -14.37109375 117.08984375 C-17.24927198 115.70405423 -19.49879817 116.33753713 -22.50390625 117.1171875 C-36.16577507 121.91278227 -48.85336183 129.98111304 -59.4375 139.8125 C-62.375 142.125 -62.375 142.125 -64.75 142 C-65.61625 141.71125 -66.4825 141.4225 -67.375 141.125 C-73.94769026 140.11482605 -78.39857523 141.51878846 -83.8984375 145.1796875 C-93.37411898 152.62273068 -99.07310668 162.52121336 -104.375 173.125 C-107.375 172.125 -107.375 172.125 -108.5078125 169.98046875 C-108.83523438 169.10003906 -109.16265625 168.21960937 -109.5 167.3125 C-109.83257813 166.43980469 -110.16515625 165.56710937 -110.5078125 164.66796875 C-114.49762028 152.96812701 -112.638105 141.165875 -107.43261719 130.12646484 C-101.5745114 118.3245114 -101.5745114 118.3245114 -98.375 115.125 C-96.04253743 115.0579417 -93.70662512 115.09583329 -91.375 115.1875 C-81.15184814 115.38623271 -73.6609651 113.05150867 -65.375 107.125 C-64.488125 106.50625 -63.60125 105.8875 -62.6875 105.25 C-59.68983483 102.49538876 -57.64741497 99.50115939 -55.375 96.125 C-56.52044495 93.20932196 -57.48135878 92.04143239 -60 90.0625 C-60.78375 89.423125 -61.5675 88.78375 -62.375 88.125 C-62.375 87.135 -62.375 86.145 -62.375 85.125 C-60.395 85.125 -58.415 85.125 -56.375 85.125 C-54.53808743 81.34312119 -54.21662374 79.17931692 -55.375 75.125 C-52.405 75.62 -52.405 75.62 -49.375 76.125 C-49.045 77.115 -48.715 78.105 -48.375 79.125 C-45.95174757 79.02413851 -45.95174757 79.02413851 -43.375 78.125 C-41.74775487 75.85701745 -41.74775487 75.85701745 -40.6875 73 C-40.29175781 72.06929687 -39.89601563 71.13859375 -39.48828125 70.1796875 C-35.60585916 59.52686618 -34.1536034 49.24640358 -38.88305664 38.72070312 C-40.30411308 35.80793964 -41.79991958 32.95773393 -43.375 30.125 C-32.93956027 14.66619673 -19.9919776 -0.46997416 0 0 Z " fill="#FCFCFC" transform="translate(698.375,898.875)"/>
<path d="M0 0 C1.12341797 0.77730469 1.12341797 0.77730469 2.26953125 1.5703125 C5.95078066 4.34395604 5.95078066 4.34395604 7 6 C6.69140625 8.63671875 6.69140625 8.63671875 6 12 C4.85240011 26.625681 6.60217112 36.36830497 16 47.96875 C17.95063394 49.9498626 19.41533986 51.02404949 22 52 C24.1477633 52.00478037 24.1477633 52.00478037 26 51 C27.28436734 49.0162233 27.28436734 49.0162233 28 47 C29.32 47 30.64 47 32 47 C32.0825 47.78375 32.165 48.5675 32.25 49.375 C32.72624325 52.09451513 32.72624325 52.09451513 34.8125 53.25 C36.86348687 53.9531955 38.88022529 54.54576256 41 55 C40.75 56.875 40.75 56.875 40 59 C37.9375 60.25 37.9375 60.25 36 61 C35.59740119 63.34941149 35.59740119 63.34941149 36 66 C44.22374119 73.65110157 55.90289369 77.74217613 67.00390625 77.41015625 C71.14335239 76.84347849 74.72743445 75.47956556 78.52734375 73.77734375 C81.59071896 72.81429214 82.98468175 72.89204585 86 74 C96.76912908 82.6089498 106.14656226 95.39129694 109 109 C109.41404954 115.27834305 109.60281299 121.14367077 107 127 C106.05125 126.195625 105.1025 125.39125 104.125 124.5625 C103.47917969 124.0159375 102.83335937 123.469375 102.16796875 122.90625 C100.67487119 121.59340026 99.22044704 120.23567809 97.80078125 118.84375 C89.83971364 111.15901697 79.94546326 104.74957201 68.6875 103.6875 C65.1736069 103.98528755 64.18406725 104.28770806 61.375 106.0625 C58 108 58 108 55.5715332 107.72998047 C53.12401826 107.03520503 50.83068318 106.22953335 48.48046875 105.2578125 C27.43518329 96.73446741 27.43518329 96.73446741 5 96 C2.46441707 97.11565649 0.34683119 98.49802804 -2 100 C-4.875 100.3125 -4.875 100.3125 -7 100 C-7.33 99.67 -7.66 99.34 -8 99 C-7.41295547 92.77732794 -7.41295547 92.77732794 -5.9375 90 C-2.96738398 83.66375249 -6.01139307 76.04508899 -8.09765625 69.82421875 C-11.38295664 60.95861444 -16.19765317 52.68751339 -20.75073242 44.42504883 C-22.01069343 41.97924216 -23.12641581 39.61036251 -24 37 C-23.34938905 35.32700041 -22.67966676 33.66140763 -22 32 C-20.81532278 24.64330071 -22.95278754 19.09828846 -27 13 C-33.54144179 4.51314801 -41.38180588 -1.77274688 -50 -8 C-35.99602431 -19.92931263 -12.36362235 -8.95914663 0 0 Z " fill="#FCFCFC" transform="translate(1517,473)"/>
<path d="M0 0 C3.6578218 2.03993908 5.66946174 3.50419262 8 7 C10.61580197 31.28958972 -0.29327228 54.48348638 -14.9375 73.1875 C-19.146134 78.26069835 -23.49177822 83.1912301 -28 88 C-28.45971191 88.49371094 -28.91942383 88.98742187 -29.39306641 89.49609375 C-48.81241736 110.18599008 -74.75151165 128.45062885 -102 137 C-100.61205902 132.43739326 -98.74772423 128.31072717 -96.5078125 124.1171875 C-96.16602966 123.46968033 -95.82424683 122.82217316 -95.47210693 122.15504456 C-94.36230135 120.05849991 -93.24457009 117.96634501 -92.125 115.875 C-91.74184631 115.15692169 -91.35869263 114.43884338 -90.96392822 113.69900513 C-75.06232512 83.93356238 -56.85738112 55.54269953 -36 29 C-34.92492187 27.61361328 -34.92492187 27.61361328 -33.828125 26.19921875 C-11.29775246 -2.21042983 -11.29775246 -2.21042983 0 0 Z " fill="#FCFCFC" transform="translate(573,562)"/>
<path d="M0 0 C-0.78375 0.763125 -1.5675 1.52625 -2.375 2.3125 C-5.64256068 5.65785975 -7.28838188 7.65770286 -7.3125 12.3125 C-7.21609588 16.56116731 -6.24666642 19.33876583 -4 23 C-3.443125 23.94875 -2.88625 24.8975 -2.3125 25.875 C-1.879375 26.57625 -1.44625 27.2775 -1 28 C-1.53109375 28.29132813 -2.0621875 28.58265625 -2.609375 28.8828125 C-7.31844902 31.61545034 -10.68408484 33.88568736 -13 39 C-13.77574701 45.00706662 -12.97476521 50.32255001 -11 56 C-12.04800781 56.68835938 -12.04800781 56.68835938 -13.1171875 57.390625 C-14.02726563 58.00421875 -14.93734375 58.6178125 -15.875 59.25 C-16.77992188 59.85328125 -17.68484375 60.4565625 -18.6171875 61.078125 C-21.00540192 63.00435695 -21.99987363 64.14088168 -23 67 C-23.20164782 70.62966078 -23.10386279 73.60052773 -22.1875 77.125 C-22.0946875 78.548125 -22.0946875 78.548125 -22 80 C-22.825 80.804375 -23.65 81.60875 -24.5 82.4375 C-25.7375 83.7059375 -25.7375 83.7059375 -27 85 C-27.00082535 88.57756686 -27.00082535 88.57756686 -26 92 C-25.814375 92.804375 -25.62875 93.60875 -25.4375 94.4375 C-25.2209375 95.2109375 -25.2209375 95.2109375 -25 96 C-25.825 96.309375 -26.65 96.61875 -27.5 96.9375 C-30.20593884 98.70218038 -30.20593884 98.70218038 -30.33203125 101.203125 C-30.31408275 103.48617399 -30.2143984 105.72737696 -30 108 C-31.485 107.505 -31.485 107.505 -33 107 C-37.80229487 106.49305449 -37.80229487 106.49305449 -41.9375 108.5 C-42.288125 108.995 -42.63875 109.49 -43 110 C-45.49361571 108.79618552 -47.68143083 107.54571278 -50 106 C-56.31867657 105.54565616 -56.31867657 105.54565616 -62 108 C-62.825 107.34 -63.65 106.68 -64.5 106 C-67.55309664 104.00043671 -70.19745251 103.35394399 -73.9140625 103.5390625 C-77.82173388 104.40255543 -80.83098355 106.64427096 -84 109 C-84.825 109.598125 -85.65 110.19625 -86.5 110.8125 C-86.995 111.204375 -87.49 111.59625 -88 112 C-88.70125 111.38125 -89.4025 110.7625 -90.125 110.125 C-95.55732397 106.10980402 -101.36433384 105.01120235 -108 106 C-111.33107164 107.69244985 -111.33107164 107.69244985 -114 110 C-115.33016303 111.00421317 -116.66291288 112.00502472 -118 113 C-118.65355469 112.18595703 -118.65355469 112.18595703 -119.3203125 111.35546875 C-124.21907789 105.39452661 -124.21907789 105.39452661 -131 102 C-136.65191074 101.86737394 -141.1030162 103.1120352 -146 106 C-143.45253655 98.46375395 -137.29045192 92.95152138 -130.4375 89.125 C-125.43237351 86.83359053 -120.22097016 85.98322067 -114.83398438 85.08789062 C-106.34866328 83.64272176 -97.24373604 80.31094776 -91.6796875 73.34765625 C-90.7292514 71.93529491 -89.85565037 70.47171864 -89 69 C-85.68501191 69.60139164 -83.82563295 70.73573461 -81.25 72.875 C-75.57938712 77.25971182 -70.27491832 79.54561887 -63 79 C-63 76.84365964 -63.4465236 75.07553648 -64 73 C-65.65 72.67 -67.3 72.34 -69 72 C-69 71.67 -69 71.34 -69 71 C-67.63875 70.5978125 -67.63875 70.5978125 -66.25 70.1875 C-63.26502899 69.09683752 -61.45887276 67.93197145 -59 66 C-58.34 66 -57.68 66 -57 66 C-56.505 64.02 -56.505 64.02 -56 62 C-55.67 62 -55.34 62 -55 62 C-55 63.65 -55 65.3 -55 67 C-54.0409375 67.4640625 -54.0409375 67.4640625 -53.0625 67.9375 C-51 69 -51 69 -50 70 C-47.64249509 65.28499019 -48.420699 58.38117591 -49.63671875 53.3828125 C-50.14085851 51.92203681 -50.67360606 50.47052393 -51.24609375 49.03515625 C-52.10435335 46.71830001 -52.56497761 44.42852304 -53 42 C-52.29875 41.79246094 -51.5975 41.58492188 -50.875 41.37109375 C-39.35480466 37.63016075 -33.52732636 31.63591588 -28 21 C-27.37216316 19.626293 -26.74694246 18.2513857 -26.125 16.875 C-22.17899825 8.91883388 -9.6589703 -3.84059057 0 0 Z " fill="#FBFBFB" transform="translate(547,289)"/>
<path d="M0 0 C1 2 1 2 0.44140625 3.6796875 C0.15136719 4.40414062 -0.13867188 5.12859375 -0.4375 5.875 C-2.09149388 11.123976 -2.27453233 15.98766833 -2.25 21.4375 C-2.24814697 22.29867432 -2.24629395 23.15984863 -2.24438477 24.04711914 C-2.18932377 28.40658374 -1.96401244 32.66625732 -1.4140625 36.9921875 C-0.24364013 46.8491061 -0.77018844 52.82520748 -6.82739258 60.91992188 C-8.19064121 62.63815622 -9.59148969 64.3188416 -11 66 C-11.70382812 66.92296875 -12.40765625 67.8459375 -13.1328125 68.796875 C-17.10765218 73.9786498 -21.45400354 78.82319486 -25.86328125 83.63671875 C-27.72312875 85.69377129 -29.48606802 87.79900468 -31.25 89.9375 C-40.22798602 100.1832109 -52.54581104 111.08296588 -66.5625 112.3125 C-70 112 -70 112 -71.9375 110.5625 C-74.58564834 104.17578929 -72.85131188 96.93464613 -71.0625 90.5 C-70.84070068 89.68869629 -70.61890137 88.87739258 -70.39038086 88.04150391 C-64.32101723 66.57771514 -55.55526225 45.96201943 -46.54467773 25.59277344 C-45.55905979 23.30031987 -44.63233077 20.98102042 -43.78540039 18.63378906 C-41.10749147 11.55306091 -41.10749147 11.55306091 -38.02587891 10.01416016 C-35.60841382 9.56216505 -33.39573144 9.47527223 -30.9375 9.5 C-29.23277156 9.42026375 -27.52832178 9.33432758 -25.82421875 9.2421875 C-24.99841309 9.20963867 -24.17260742 9.17708984 -23.32177734 9.14355469 C-14.87143179 8.62107275 -6.09413572 6.09413572 0 0 Z " fill="#FCFCFC" transform="translate(1120,934)"/>
<path d="M0 0 C0.51427247 23.30841067 -0.58326066 46.24396279 -6 69 C-6.21269531 69.94101562 -6.42539063 70.88203125 -6.64453125 71.8515625 C-9.79954859 84.65613579 -14.65280681 97.42681253 -25.81640625 105.27734375 C-30.28599602 107.52769405 -35.15501635 107.90469602 -40 107 C-49.1327934 103.78704562 -54.50189464 99.52711614 -59.01953125 91.09765625 C-61.43510755 85.70397219 -62.51543647 79.76190015 -61 74 C-58.85492976 71.23317027 -56.47840694 69.0566875 -53.8671875 66.7265625 C-47.39315375 60.57005629 -42.29319361 52.7509655 -38.25 44.8125 C-32.99677803 34.71015007 -12.76105235 0 0 0 Z " fill="#FCFCFC" transform="translate(1276,672)"/>
<path d="M0 0 C0.56726344 18.71532991 -0.55608899 36.32459854 -3.49609375 54.828125 C-3.91849333 57.48695028 -4.31005219 60.14706611 -4.6875 62.8125 C-7.00272722 77.39843147 -11.79595444 92.78684314 -23.0625 102.875 C-28.57589073 106.86341031 -33.28142052 107.87538495 -40 107 C-48.37208861 104.53597392 -54.71158832 99.82255052 -58.9375 92.1875 C-61.32968655 87.59542486 -61.91796664 83.07565919 -61 78 C-59.49091454 74.92714419 -57.46395263 72.4002123 -55.3125 69.75 C-50.24288554 63.15084473 -45.66612402 56.44280559 -41.375 49.3125 C-36.40084237 41.11854333 -31.12675679 33.31429594 -25.29980469 25.70556641 C-23.99767312 23.99694674 -22.7196977 22.27235158 -21.4453125 20.54296875 C-6.17409293 0 -6.17409293 0 0 0 Z " fill="#FCFCFC" transform="translate(1420,672)"/>
<path d="M0 0 C2.07123314 1.54976974 2.88766039 2.47574847 3.43359375 5.0234375 C3.48635471 36.78553362 -24.23782968 76.02363501 -45.5 98 C-51.11263569 103.43798507 -56.66074739 107.38010677 -64.5 108.5 C-65.325 108.335 -66.15 108.17 -67 108 C-70.31887499 103.02168751 -69.56029462 97.81228701 -69 92 C-63.3503448 65.23515303 -45.86728554 39.08560066 -29 18 C-28.21753906 17.01902344 -27.43507813 16.03804687 -26.62890625 15.02734375 C-19.93754206 7.11936789 -10.9673623 -0.91394686 0 0 Z " fill="#FCFCFC" transform="translate(706,661)"/>
<path d="M0 0 C2.63711692 0.0106943 5.27354857 0.00006562 7.91064453 -0.01269531 C33.91372656 -0.03803008 33.91372656 -0.03803008 43.33642578 5.13574219 C44.26583984 5.62816406 45.19525391 6.12058594 46.15283203 6.62792969 C50.41413045 9.28250903 53.88545299 11.62134358 56.02392578 16.26074219 C56.33845703 16.92074219 56.65298828 17.58074219 56.97705078 18.26074219 C59.18133961 23.79307495 59.67836437 29.54742643 57.77392578 35.26074219 C57.10449951 35.1751001 56.43507324 35.08945801 55.74536133 35.0012207 C52.65097182 34.6065268 49.55620464 34.21487106 46.46142578 33.82324219 C45.40890625 33.68853516 44.35638672 33.55382812 43.27197266 33.41503906 C40.1075294 33.01583237 36.94145599 32.63460636 33.77392578 32.26074219 C32.95166504 32.15777832 32.1294043 32.05481445 31.28222656 31.94873047 C22.2848351 30.96014365 13.2296028 31.03874103 4.18896484 31.02050781 C1.30813099 31.01085678 -1.57197104 30.97977873 -4.45263672 30.94824219 C-15.99402515 30.88343072 -26.96926529 31.75541552 -38.31225586 33.90100098 C-40.94342414 34.39558274 -43.58390648 34.8294318 -46.22607422 35.26074219 C-48.66035637 27.95789573 -47.58367917 20.1031341 -44.22607422 13.26074219 C-40.04486125 6.47967243 -34.41826947 3.5434888 -26.82373047 1.66723633 C-17.88664149 -0.00026568 -9.05742091 -0.04361788 0 0 Z " fill="#020202" transform="translate(1027.22607421875,506.7392578125)"/>
<path d="M0 0 C3.42355565 5.13533347 2.49146406 10.38093202 1.3828125 16.2890625 C-5.06679321 42.48701843 -18.23914039 67.26707678 -34 89 C-34.62068359 89.85851562 -34.62068359 89.85851562 -35.25390625 90.734375 C-40.55383201 97.94087471 -46.70549957 105.27975147 -55.9375 107 C-56.948125 107 -57.95875 107 -59 107 C-61.71957669 104.28042331 -61.363124 102.74817645 -61.4375 98.9375 C-60.86990459 67.90895079 -38.67007201 30.13082886 -18.03515625 7.9453125 C-12.26973759 2.43441328 -8.21321942 -0.76048328 0 0 Z " fill="#FDFDFD" transform="translate(1316,463)"/>
<path d="M0 0 C5.90807242 3.16040601 8.6189437 6.91777854 11.01171875 13.03515625 C16.37449881 32.00387643 10.55756475 53.60184096 2.95703125 71.046875 C2.00505722 72.74143194 1.0283606 74.42513791 -0.04296875 76.046875 C-11.45649088 73.12033086 -20.14571332 64.56495918 -26.05859375 54.67578125 C-32.40583711 42.869876 -36.68066963 30.19469645 -33.19921875 16.80078125 C-30.13001369 8.49526351 -25.48528841 3.06240168 -17.54296875 -0.890625 C-11.07289859 -2.85475344 -6.1778319 -2.34107314 0 0 Z " fill="#FCFCFC" transform="translate(1160.04296875,662.953125)"/>
<path d="M0 0 C5.34787221 4.06438288 7.94061035 8.83315804 9.125 15.375 C10.29347583 30.66245206 9.89041465 45.75697565 5.125 60.375 C4.80426514 61.38481934 4.80426514 61.38481934 4.47705078 62.41503906 C3.17962434 66.46362329 1.86524271 70.49200947 0.125 74.375 C-0.865 74.87 -0.865 74.87 -1.875 75.375 C-14.94828661 69.78604847 -21.45000948 58.83238563 -26.875 46.375 C-27.42027344 45.16070312 -27.42027344 45.16070312 -27.9765625 43.921875 C-31.51965084 34.4515641 -31.71762341 20.95726162 -28.125 11.5 C-25.21359527 5.67719054 -22.1329064 1.83403085 -16.15234375 -0.89453125 C-10.70025689 -2.64331383 -5.14784995 -2.62352952 0 0 Z " fill="#FDFDFD" transform="translate(904.875,464.625)"/>
<path d="M0 0 C1.9156801 2.87352015 3.00749051 5.41932553 4.25 8.625 C11.98261689 27.35912431 25.85719527 37.30930798 43 47 C39.11981232 55.58514955 30.44352774 61.76870627 21.921875 65.26171875 C14.37354416 67.81062194 6.43306473 69.98480648 -1.3203125 67.15234375 C-6.5684249 64.29589881 -9.0964874 60.63259597 -11 55 C-11.57908949 51.19262021 -11.61818955 47.47096356 -11.5625 43.625 C-11.55371826 42.57151367 -11.54493652 41.51802734 -11.53588867 40.43261719 C-11.24242716 29.00925975 -8.51892306 8.51892306 0 0 Z " fill="#FBFBFB" transform="translate(1104,711)"/>
<path d="M0 0 C1.82260856 2.73391284 3.02075487 5.36649878 4.25708008 8.39428711 C11.45669985 25.86171904 22.33153967 37.09297051 39 46 C33.22859308 55.61901153 25.64016761 62.19055728 15 66 C9.51516721 67.18196155 4.87644512 67.60314307 -0.5 65.875 C-5.28243686 62.28817235 -7.47478008 58.73430321 -9 53 C-9.30719363 49.84999441 -9.3336008 46.72581203 -9.3125 43.5625 C-9.30686035 42.67578613 -9.3012207 41.78907227 -9.29541016 40.87548828 C-9.03318346 26.4789831 -4.7639572 13.45933539 0 0 Z " fill="#FDFDFD" transform="translate(854,513)"/>
<path d="M0 0 C3.56635419 2.63230905 3.90661971 4.48216387 4.6875 8.8125 C3.9168908 25.29803245 -9.63677203 42.1216893 -21 53 C-27.345231 57.59970277 -32.25783048 58.83832409 -40 58 C-43.125 56.5625 -43.125 56.5625 -45 54 C-46.24323564 47.00364638 -44.00757145 41.80149854 -40.625 35.8125 C-40.17455322 34.99023926 -39.72410645 34.16797852 -39.26000977 33.32080078 C-18.77907094 -3.31206217 -18.77907094 -3.31206217 0 0 Z " fill="#FBFBFB" transform="translate(1601,662)"/>
<path d="M0 0 C1.60294922 0.04060547 1.60294922 0.04060547 3.23828125 0.08203125 C4.04652344 0.11683594 4.85476563 0.15164063 5.6875 0.1875 C4.883125 0.826875 4.07875 1.46625 3.25 2.125 C0.28104978 4.19518272 0.28104978 4.19518272 -0.62890625 7.25390625 C-0.75072266 8.48947266 -0.75072266 8.48947266 -0.875 9.75 C-1.00068359 10.98943359 -1.00068359 10.98943359 -1.12890625 12.25390625 C-1.18949219 12.89199219 -1.25007813 13.53007812 -1.3125 14.1875 C-2.405625 14.290625 -3.49875 14.39375 -4.625 14.5 C-8.14459341 14.9110799 -8.14459341 14.9110799 -10.125 16.375 C-11.52007899 18.27269498 -11.52007899 18.27269498 -12 21.25 C-12.433125 22.219375 -12.86625 23.18875 -13.3125 24.1875 C-15.3327481 24.88580315 -17.31363593 25.1985073 -19.41796875 25.5625 C-21.69467722 26.08164698 -21.69467722 26.08164698 -23.0625 29.1875 C-23.475 30.1775 -23.8875 31.1675 -24.3125 32.1875 C-25.64583333 32.85416667 -26.97916667 33.52083333 -28.3125 34.1875 C-29.12421228 36.74269921 -29.12421228 36.74269921 -29.3125 39.1875 C-30.09625 39.31125 -30.88 39.435 -31.6875 39.5625 C-34.45307822 39.97867993 -34.45307822 39.97867993 -36.3125 42.1875 C-39.1875 41.4375 -39.1875 41.4375 -42.3125 40.1875 C-42.97916667 38.85416667 -43.64583333 37.52083333 -44.3125 36.1875 C-46.30821323 35.50810826 -48.30844773 34.84188441 -50.3125 34.1875 C-50.745625 33.506875 -51.17875 32.82625 -51.625 32.125 C-53.10942643 29.99046411 -53.10942643 29.99046411 -55.31640625 29.91796875 C-56.09886719 29.88316406 -56.88132812 29.84835937 -57.6875 29.8125 C-60.1171875 29.6640625 -60.1171875 29.6640625 -62.3125 29.1875 C-63.97916667 27.1875 -65.64583333 25.1875 -67.3125 23.1875 C-70.31368612 22.382428 -73.21319631 22.20100459 -76.3125 22.1875 C-76.993125 20.516875 -76.993125 20.516875 -77.6875 18.8125 C-79.03715986 15.22550992 -79.03715986 15.22550992 -81.3125 13.1875 C-83.30071313 12.78985737 -85.30194339 12.44974651 -87.3125 12.1875 C-86.3125 10.1875 -86.3125 10.1875 -83.3125 9.1875 C-81.35683497 9.06770855 -79.39679234 9.01221504 -77.4375 9 C-76.40882813 8.98582031 -75.38015625 8.97164063 -74.3203125 8.95703125 C-71.22764844 9.19400161 -69.15610205 10.01714289 -66.3125 11.1875 C-61.29999902 11.64958993 -56.19189294 11.48867145 -51.3125 10.1875 C-50.99796875 10.73019531 -50.6834375 11.27289063 -50.359375 11.83203125 C-47.15708697 17.25468839 -47.15708697 17.25468839 -42.3125 21.1875 C-42.6425 19.5375 -42.9725 17.8875 -43.3125 16.1875 C-40.6725 16.1875 -38.0325 16.1875 -35.3125 16.1875 C-34.8175 18.1675 -34.8175 18.1675 -34.3125 20.1875 C-30.74238974 16.455112 -30.20336558 12.0925011 -29.3125 7.1875 C-28.36890625 7.25710938 -28.36890625 7.25710938 -27.40625 7.328125 C-19.79565877 7.64905355 -15.15247974 5.85879025 -8.9765625 1.5625 C-5.75269617 -0.10143101 -3.60323976 -0.11878812 0 0 Z " fill="#F8F8F8" transform="translate(1049.3125,429.8125)"/>
<path d="M0 0 C2.61481973 3.0990456 2.82673874 6.09498613 2.6875 10 C0.67029367 25.78581229 -8.93427226 42.49271878 -20.66796875 53.13671875 C-24.16225043 55.71683379 -27.18643976 57.33817957 -31.5625 57.625 C-35.82544508 56.91450915 -37.60522749 56.38409064 -40.3125 53 C-40.8169189 47.06046747 -39.86432622 42.77794907 -37.3125 37.375 C-36.99925781 36.68913818 -36.68601562 36.00327637 -36.36328125 35.29663086 C-30.11000279 21.87710765 -22.98934208 8.00667761 -10.3125 -0.3125 C-6.63000914 -1.57835623 -3.57317106 -1.54515505 0 0 Z " fill="#FCFCFC" transform="translate(1181.3125,464)"/>
<path d="M0 0 C3.06779658 2.85391969 5.18048099 5.71503594 7.3125 9.3125 C15.63714732 22.56505694 27.41214818 28.96730708 42 34 C31.78534042 44.79567692 16.21200184 52.56999994 1.2265625 53.09765625 C0.36804688 53.08605469 -0.49046875 53.07445312 -1.375 53.0625 C-2.68597656 53.04896484 -2.68597656 53.04896484 -4.0234375 53.03515625 C-4.67570313 53.02355469 -5.32796875 53.01195312 -6 53 C-10.34278914 35.8039559 -6.03020478 16.16217321 0 0 Z " fill="#010101" transform="translate(718,510)"/>
<path d="M0 0 C0.99 0.99 1.98 1.98 3 3 C1.60061072 6.32982885 0.11175948 7.91666857 -2.8125 10 C-19.33975487 22.45532251 -32.26516561 38.29432584 -43.0625 55.875 C-43.701875 56.90625 -44.34125 57.9375 -45 59 C-45.33 59 -45.66 59 -46 59 C-46.02578125 57.96101562 -46.0515625 56.92203125 -46.078125 55.8515625 C-46.35606033 48.25709343 -46.8365665 41.7986682 -50.16015625 34.8203125 C-51 33 -51 33 -51 31 C-50.44763672 30.77973145 -49.89527344 30.55946289 -49.32617188 30.33251953 C-30.91021335 22.9134973 -14.17442788 14.17442788 0 0 Z " fill="#060606" transform="translate(817,632)"/>
<path d="M0 0 C3.37308761 1.12436254 4.15123097 2.07342733 6.375 4.75 C9.12534216 7.99668841 11.94652216 11.03905179 15 14 C13.40956621 19.08938811 10.2553049 22.87456643 7 27 C2.67194843 25.00170923 -0.48906316 22.17243845 -4 19 C-5.3921875 17.7625 -5.3921875 17.7625 -6.8125 16.5 C-9.23358692 13.73304352 -9.94368618 11.479622 -11 8 C-9.23871656 6.63343543 -7.46563912 5.28205915 -5.6875 3.9375 C-4.70136719 3.18339844 -3.71523437 2.42929687 -2.69921875 1.65234375 C-1.80847656 1.10707031 -0.91773438 0.56179688 0 0 Z " fill="#070707" transform="translate(1220,638)"/>
<path d="M0 0 C1 2 1 2 0.56274414 3.78759766 C0.17783813 4.84019775 0.17783813 4.84019775 -0.21484375 5.9140625 C-0.48876953 6.67460938 -0.76269531 7.43515625 -1.04492188 8.21875 C-1.33947266 9.0128125 -1.63402344 9.806875 -1.9375 10.625 C-2.22818359 11.42679688 -2.51886719 12.22859375 -2.81835938 13.0546875 C-3.53882525 15.03892138 -4.26855138 17.01978837 -5 19 C-9.14954518 18.47686272 -12.9926065 17.83338539 -16.9375 16.4375 C-17.70964844 16.16808594 -18.48179687 15.89867187 -19.27734375 15.62109375 C-19.84582031 15.41613281 -20.41429687 15.21117187 -21 15 C-16.93597809 11.62119108 -12.66140461 8.70668742 -8.25 5.8125 C-3.91196317 3.16722035 -3.91196317 3.16722035 0 0 Z " fill="#0D0D0D" transform="translate(572,727)"/>
<path d="M0 0 C0.66 0.66 1.32 1.32 2 2 C1.04532436 3.62715156 0.08613152 5.25165346 -0.875 6.875 C-1.40867187 7.77992188 -1.94234375 8.68484375 -2.4921875 9.6171875 C-4 12 -4 12 -6 14 C-6.99 12.35 -7.98 10.7 -9 9 C-6.03 6.03 -3.06 3.06 0 0 Z " fill="#111111" transform="translate(1064,834)"/>
<path d="M0 0 C0 4.38968456 -2.12805101 5.76905739 -5 9 C-5.66 7.68 -6.32 6.36 -7 5 C-6.030625 4.360625 -5.06125 3.72125 -4.0625 3.0625 C-1.23963731 1.3034741 -1.23963731 1.3034741 0 0 Z " fill="#2B2B2B" transform="translate(1381,649)"/>
</svg>
